<svg width="159" height="52" viewBox="0 0 159 52" fill="none" xmlns="http://www.w3.org/2000/svg">
<path d="M26.6779 48.5112L25.9272 50.1099C24.5672 50.8072 23.3472 51.2846 22.2659 51.5433C21.1832 51.8019 19.8326 51.9299 18.2112 51.9299C15.9059 51.9299 13.8672 51.5766 12.0952 50.8699C10.7032 50.3006 9.52188 49.5446 8.55522 48.6059C7.58722 47.6672 6.84188 46.6486 6.31921 45.5499C5.52588 43.8939 5.12988 42.0939 5.12988 40.1526C5.12988 36.8273 6.30055 34.1139 8.64455 32.0072C10.9886 29.9019 14.2966 28.8486 18.5699 28.8486C20.0379 28.8486 21.3565 28.9539 22.5259 29.1659C23.6952 29.3766 25.0512 29.7512 26.5965 30.2886L26.6779 30.4952C26.5032 30.9912 26.3672 31.6139 26.2699 32.3632C26.1059 33.5566 26.0032 34.6592 25.9605 35.6726H24.6885C24.6659 34.5099 24.6112 33.5819 24.5245 32.8859C23.7952 32.1472 22.9779 31.5952 22.0699 31.2312C21.1619 30.8672 20.0006 30.6846 18.5872 30.6846C16.0312 30.6846 13.9872 31.4686 12.4539 33.0366C10.9205 34.6046 10.1539 36.7912 10.1539 39.5979C10.1539 41.2979 10.4112 42.7792 10.9285 44.0472C11.4445 45.3139 12.1326 46.3606 12.9926 47.1886C13.8512 48.0179 14.7152 48.6219 15.5859 49.0033C16.7712 49.5086 18.2059 49.7619 19.8912 49.7619C21.0005 49.7619 22.0499 49.6406 23.0405 49.3979C24.0299 49.1552 25.1059 48.7393 26.2699 48.1473L26.6779 48.5112Z" fill="#005596"/>
<path d="M31.7125 39.6446C31.7125 42.1112 32.0605 44.1526 32.7565 45.7673C33.4525 47.3806 34.3445 48.5219 35.4325 49.1873C36.5191 49.8539 37.8032 50.1886 39.2818 50.1886C40.6512 50.1886 41.8778 49.8712 42.9605 49.2366C44.0418 48.6006 44.8898 47.5259 45.5045 46.0126C46.1191 44.4979 46.4258 42.6619 46.4258 40.5019C46.4258 39.0206 46.2605 37.6659 45.9285 36.4379C45.5965 35.2099 45.1218 34.1646 44.5005 33.3019C43.8818 32.4393 43.1498 31.7793 42.3071 31.3246C41.4645 30.8699 40.3472 30.6419 38.9552 30.6419C37.3672 30.6419 36.0165 31.0046 34.9018 31.7286C33.7871 32.4539 32.9765 33.5259 32.4712 34.9446C31.9658 36.3632 31.7125 37.9299 31.7125 39.6446ZM26.6885 40.5899C26.6885 38.6539 26.9911 36.9659 27.5938 35.5286C28.1978 34.0899 29.0592 32.8686 30.1792 31.8632C31.2992 30.8579 32.5178 30.1339 33.8338 29.6899C35.5192 29.1299 37.3565 28.8486 39.3471 28.8486C41.3258 28.8486 43.1205 29.1179 44.7298 29.6579C45.9258 30.0699 46.9832 30.6659 47.9032 31.4419C48.8218 32.2206 49.5205 33.0153 49.9991 33.8313C50.4778 34.6459 50.8391 35.5392 51.0831 36.5112C51.3285 37.4859 51.4512 38.5579 51.4512 39.7326C51.4512 41.7206 51.0965 43.5659 50.3898 45.2699C49.8685 46.5392 49.1045 47.6659 48.0978 48.6499C47.0925 49.6326 45.9472 50.3899 44.6645 50.9179C42.9032 51.6273 40.8912 51.9819 38.6298 51.9819C36.1818 51.9819 34.0805 51.5499 32.3245 50.6873C30.5685 49.8259 29.1898 48.5539 28.1885 46.8726C27.1885 45.1913 26.6885 43.0966 26.6885 40.5899Z" fill="#005596"/>
<path d="M51.9897 51.9375V51.0882C52.2724 50.9668 52.6697 50.7535 53.1804 50.4442C53.4097 50.3122 53.5564 50.2029 53.6204 50.1149C53.6644 50.0589 53.691 49.9975 53.703 49.9322C53.7564 49.6575 53.8057 48.6748 53.8497 46.9855C53.8924 45.2948 53.915 43.2668 53.915 40.8988C53.915 37.4188 53.9057 35.2735 53.887 34.4575C53.851 32.3895 53.7844 31.2042 53.6857 30.9069C53.6404 30.7762 53.5604 30.6762 53.439 30.6108C53.1884 30.4455 52.351 30.3349 50.9297 30.2802V28.8255C52.311 28.9029 53.887 28.9415 55.659 28.9415C57.639 28.9415 59.5164 28.9029 61.2884 28.8255V30.2802C60.0577 30.3349 59.3084 30.4335 59.0364 30.5762C58.9164 30.6428 58.8297 30.7508 58.7763 30.8988C58.7203 31.0482 58.6697 31.7268 58.6217 32.9375C58.5724 34.1482 58.5484 35.6775 58.5484 37.5269C58.5484 37.7242 58.5524 39.3149 58.5644 42.2962C58.575 43.8695 58.5817 45.4295 58.5884 46.9775C58.5937 48.5215 58.6017 49.4615 58.6137 49.7895C60.1124 49.8668 61.1363 49.9055 61.679 49.9055C63.3323 49.9055 64.7737 49.8069 66.0017 49.6069C66.4484 49.5429 66.7137 49.4708 66.8017 49.3935C66.8883 49.3162 66.9817 49.1122 67.0777 48.7815C67.295 47.9455 67.5084 46.9869 67.7137 45.9069H69.0684C69.0364 46.2149 69.0203 46.3975 69.0203 46.4522L68.6123 49.7895C68.5257 50.8362 68.4764 51.4642 68.4644 51.6722C68.1497 51.7615 67.8337 51.8215 67.519 51.8549C66.8564 51.9109 65.8284 51.9375 64.4364 51.9375C64.2404 51.9375 62.9617 51.9109 60.6017 51.8549C58.8084 51.8122 57.5577 51.7895 56.851 51.7895C55.7857 51.7895 54.1644 51.8375 51.9897 51.9375Z" fill="#005596"/>
<path d="M69.8774 51.9999V51.1492C70.16 51.0279 70.5574 50.8119 71.0694 50.5025C71.2974 50.3692 71.444 50.2612 71.508 50.1719C71.552 50.1159 71.58 50.0545 71.5907 49.9892C71.6454 49.7132 71.6934 48.7279 71.7374 47.0345C71.78 45.3385 71.8027 43.3052 71.8027 40.9318C71.8027 37.4438 71.7934 35.2892 71.776 34.4732C71.7387 32.3972 71.6721 31.2105 71.5734 30.9132C71.5294 30.7812 71.4467 30.6812 71.328 30.6158C71.076 30.4492 70.24 30.3399 68.8174 30.2839V28.8252C70.1987 28.9025 71.776 28.9425 73.548 28.9425C75.5267 28.9425 77.404 28.9025 79.176 28.8252V30.2839C77.9454 30.3399 77.196 30.4385 76.924 30.5825C76.8054 30.6479 76.7187 30.7559 76.6627 30.9052C76.6094 31.0545 76.5574 31.7345 76.508 32.9492C76.4587 34.1625 76.4347 35.6959 76.4347 37.5505C76.4347 37.7479 76.4414 39.3425 76.452 42.3319C76.4627 43.9105 76.4707 45.4745 76.476 47.0252C76.4814 48.5745 76.4894 49.5159 76.5 49.8465C78.0014 49.9239 79.0227 49.9625 79.568 49.9625C81.22 49.9625 82.6614 49.8625 83.8907 49.6639C84.336 49.5985 84.6027 49.5265 84.688 49.4479C84.776 49.3732 84.868 49.1665 84.9667 48.8359C85.184 47.9972 85.396 47.0372 85.6027 45.9532H86.9574C86.924 46.2639 86.908 46.4452 86.908 46.4999L86.5 49.8465C86.412 50.8959 86.364 51.5252 86.3534 51.7345C86.0374 51.8225 85.7214 51.8839 85.4067 51.9172C84.7441 51.9732 83.716 51.9999 82.324 51.9999C82.128 51.9999 80.8507 51.9732 78.4907 51.9172C76.6974 51.8745 75.4454 51.8518 74.7387 51.8518C73.6734 51.8518 72.0534 51.8999 69.8774 51.9999Z" fill="#005596"/>
<path d="M87.6476 51.9001V51.0095C88.2996 50.7015 88.833 50.3828 89.2463 50.0521C89.3116 49.5908 89.3663 48.8441 89.409 47.8094C89.4956 45.9188 89.5396 44.5455 89.5396 43.6868V36.2655C89.5396 35.9788 89.5223 34.9068 89.4903 33.0495C89.4583 31.8068 89.381 31.0481 89.2636 30.7721C89.2076 30.6628 89.1263 30.5815 89.0183 30.5255C88.7236 30.3935 87.9409 30.2948 86.6689 30.2281V28.9588L90.453 28.9308C91.2036 28.9268 91.9209 28.9255 92.6063 28.9255C94.0969 28.9255 95.7543 28.9095 97.5823 28.8761L100.893 28.7935C101.285 28.7935 102.078 28.8161 103.274 28.8601C103.384 28.8601 103.561 28.8921 103.813 28.9588L103.926 29.1735L103.617 31.5481C103.606 31.7121 103.552 32.5055 103.453 33.9228H102.182C102.16 32.6255 102.11 31.8281 102.034 31.5308C101.993 31.3775 101.926 31.2668 101.84 31.2015C101.698 31.1028 101.264 31.0148 100.537 30.9375C99.4636 30.8175 98.4116 30.7561 97.3796 30.7561C96.4143 30.7561 95.4263 30.7948 94.417 30.8708C94.265 32.1241 94.189 33.7148 94.189 35.6441V39.0521C94.9263 39.1081 95.6956 39.1348 96.4983 39.1348C96.749 39.1348 97.649 39.1121 99.1996 39.0681C99.785 39.0574 100.13 39.0188 100.233 38.9521C100.337 38.8881 100.414 38.7721 100.47 38.6068C100.6 38.1895 100.674 37.4908 100.697 36.5121H102.018L101.937 40.1415L102.018 43.7535H100.697C100.708 42.4775 100.626 41.6908 100.449 41.3935C100.318 41.1735 100.082 41.0361 99.7423 40.9814C98.9823 40.8614 98.0116 40.8001 96.825 40.8001C95.7596 40.8001 94.881 40.8388 94.189 40.9148V47.8321C94.189 48.6041 94.2049 49.2668 94.2383 49.8215C95.1169 49.8988 96.1583 49.9361 97.3636 49.9361C98.5356 49.9361 99.6183 49.8988 100.612 49.8215C101.605 49.7455 102.216 49.6348 102.445 49.4908C102.52 49.4468 102.59 49.3481 102.656 49.1961C102.852 48.6668 103.057 47.6668 103.274 46.1935H104.612C104.373 48.3708 104.253 50.1628 104.253 51.5695L104.041 51.7855C103.345 51.8615 102.356 51.9001 101.073 51.9001L98.4463 51.8415C95.8583 51.8041 94.0756 51.7855 93.0956 51.7855C92.8343 51.7855 91.0183 51.8228 87.6476 51.9001Z" fill="#005596"/>
<path d="M127.255 35.6283H125.951C125.951 35.2897 125.928 34.7857 125.885 34.119C125.853 33.6537 125.797 33.255 125.723 32.927C125.449 32.6097 125.157 32.3484 124.841 32.1484C124.136 31.6817 123.321 31.3164 122.397 31.0524C121.475 30.787 120.432 30.6537 119.269 30.6537C116.553 30.6537 114.377 31.4763 112.743 33.1177C111.108 34.7603 110.292 37.0163 110.292 39.887C110.292 43.0243 111.151 45.5163 112.873 47.3657C114.595 49.2137 116.704 50.1377 119.204 50.1377C119.929 50.1377 120.639 50.0643 121.328 49.9163C122.019 49.767 122.695 49.5497 123.356 49.2644C123.389 48.979 123.417 48.4283 123.439 47.611C123.46 46.795 123.471 46.303 123.471 46.1337C123.471 45.115 123.428 41.5017 123.34 41.311C123.275 41.183 123.129 41.0937 122.9 41.0404C122.52 40.935 121.488 40.8337 119.805 40.739V39.451L124.68 39.515L129.588 39.451V40.499C128.957 40.627 128.544 40.8017 128.348 41.0257C128.251 41.1297 128.191 41.4217 128.168 41.899C128.115 43.1163 128.087 47.0017 128.087 47.531C128.087 48.3363 128.136 49.163 128.233 50.011C126.212 50.731 124.447 51.2403 122.94 51.5377C121.435 51.8323 119.931 51.9817 118.429 51.9817C115.984 51.9817 113.82 51.579 111.937 50.7723C110.623 50.2017 109.497 49.4643 108.561 48.5657C107.627 47.663 106.913 46.695 106.424 45.6564C105.652 44.0457 105.267 42.255 105.267 40.2843C105.267 38.6217 105.52 37.1697 106.024 35.931C106.529 34.691 107.235 33.6083 108.137 32.6803C109.04 31.7537 110.065 31.0017 111.212 30.4244C112.359 29.8457 113.561 29.4337 114.817 29.1844C116.073 28.9364 117.452 28.811 118.952 28.811C120.801 28.811 122.523 28.9764 124.116 29.3044C125.708 29.6324 126.949 29.9924 127.843 30.3844L127.973 30.687C127.712 31.619 127.473 33.2657 127.255 35.6283Z" fill="#005596"/>
<path d="M130.449 51.9375V51.0455C131.103 50.7362 131.636 50.4175 132.049 50.0868C132.113 49.6255 132.168 48.8775 132.212 47.8402C132.299 45.9468 132.343 44.5695 132.343 43.7109V36.2762C132.343 35.9908 132.327 34.9162 132.293 33.0562C132.26 31.8109 132.184 31.0508 132.065 30.7762C132.009 30.6668 131.928 30.5829 131.82 30.5282C131.527 30.3962 130.744 30.2975 129.471 30.2308V28.9589L133.255 28.9309C134.005 28.9282 134.723 28.9255 135.409 28.9255C136.899 28.9255 138.556 28.9095 140.384 28.8762L143.696 28.7935C144.087 28.7935 144.88 28.8162 146.076 28.8588C146.185 28.8588 146.365 28.8935 146.615 28.9589L146.729 29.1735L146.42 31.5522C146.409 31.7175 146.355 32.5108 146.256 33.9322H144.984C144.961 32.6308 144.913 31.8335 144.837 31.5362C144.795 31.3828 144.728 31.2709 144.643 31.2055C144.501 31.1055 144.067 31.0189 143.34 30.9402C142.265 30.8202 141.213 30.7602 140.181 30.7602C139.216 30.7602 138.228 30.7975 137.22 30.8748C137.067 32.1295 136.991 33.7229 136.991 35.6549V39.0695C137.729 39.1242 138.499 39.1508 139.301 39.1508C139.551 39.1508 140.452 39.1295 142.003 39.0855C142.589 39.0749 142.932 39.0362 143.036 38.9695C143.139 38.9042 143.217 38.7882 143.272 38.6228C143.401 38.2055 143.479 37.5042 143.5 36.5255H144.821L144.739 40.1602L144.821 43.7762H143.5C143.511 42.4988 143.428 41.7122 143.252 41.4148C143.12 41.1948 142.884 41.0562 142.544 41.0015C141.785 40.8815 140.813 40.8202 139.627 40.8202C138.561 40.8202 137.683 40.8575 136.991 40.9362V47.8628C136.991 48.6375 137.008 49.3015 137.04 49.8562C137.919 49.9335 138.961 49.9722 140.167 49.9722C141.339 49.9722 142.421 49.9335 143.415 49.8562C144.407 49.7789 145.017 49.6682 145.247 49.5269C145.323 49.4815 145.393 49.3815 145.459 49.2282C145.653 48.7002 145.86 47.6975 146.076 46.2215H147.415C147.175 48.4029 147.056 50.1989 147.056 51.6069L146.843 51.8215C146.148 51.8989 145.157 51.9375 143.875 51.9375L141.249 51.8789C138.661 51.8415 136.877 51.8215 135.899 51.8215C135.637 51.8215 133.821 51.8602 130.449 51.9375Z" fill="#005596"/>
<path d="M7.07867 20.6592C7.41467 20.7338 8.04533 20.7712 8.97066 20.7712C10.232 20.7712 11.2507 20.3365 12.0293 19.4659C12.8067 18.5965 13.196 17.3499 13.196 15.7272C13.196 14.5739 12.992 13.6392 12.5853 12.9245C12.1787 12.2085 11.64 11.7045 10.9693 11.4112C10.2973 11.1179 9.372 10.9712 8.192 10.9712C7.77466 10.9712 7.38401 10.9925 7.01868 11.0352V18.3379L7.04799 20.2432C7.04799 20.2965 7.05867 20.4352 7.07867 20.6592ZM7.01868 9.28853L7.90267 9.30453C8.59467 9.30453 9.23466 9.24721 9.82399 9.12854C10.4147 9.01121 10.892 8.80587 11.2587 8.51253C11.6253 8.2192 11.932 7.78051 12.1813 7.19918C12.4307 6.61651 12.5547 5.94719 12.5547 5.18986C12.5547 4.42053 12.4133 3.76588 12.128 3.22721C11.844 2.68855 11.472 2.30452 11.0147 2.07385C10.5573 1.84452 9.87067 1.72986 8.95467 1.72986C8.29467 1.72986 7.69466 1.76721 7.15466 1.84188C7.09466 2.61255 7.05866 3.50053 7.04799 4.50586L7.01868 6.99386V9.28853ZM1.236 22.4539V21.7005C1.77467 21.3699 2.22267 21.0392 2.57867 20.7072C2.64001 20.1845 2.68 19.5445 2.70133 18.7858C2.74133 17.2272 2.76133 14.3912 2.76133 10.2819C2.76133 9.18186 2.73601 7.46854 2.68534 5.14054C2.65468 3.34721 2.59867 2.32188 2.51733 2.06588C2.46667 1.90588 2.39066 1.79386 2.28933 1.72986C2.07599 1.58053 1.312 1.46318 0 1.37785V0.0485446C0.224 0.0485446 0.458677 0.0538474 0.702677 0.0671807L2.808 0.141847C3.49867 0.153847 4.35867 0.160524 5.38533 0.160524C6.40267 0.160524 7.20133 0.148513 7.78133 0.124513C9.24533 0.0525131 10.2013 0.0165215 10.648 0.0165215C12.3267 0.0165215 13.62 0.197882 14.5307 0.560548C15.4413 0.923215 16.1067 1.44986 16.5293 2.13786C16.9507 2.82719 17.1627 3.59785 17.1627 4.45252C17.1627 5.37118 16.92 6.22451 16.4373 7.01518C15.9547 7.80451 15.336 8.41786 14.584 8.85653C14.1373 9.12319 13.14 9.48052 11.5947 9.92985C13.4453 10.1645 14.7347 10.4739 15.4613 10.8579C16.1893 11.2432 16.7707 11.8432 17.208 12.6605C17.6453 13.4765 17.864 14.3872 17.864 15.3899C17.864 16.4472 17.64 17.4072 17.1933 18.2645C16.7453 19.1245 16.168 19.8592 15.4613 20.4672C14.7547 21.0752 13.944 21.5592 13.028 21.9165C12.1133 22.2752 10.9693 22.4539 9.59601 22.4539L4.47066 22.3405C3.64666 22.3405 2.568 22.3792 1.236 22.4539Z" fill="#005596"/>
<path d="M18.2129 1.36137V0.0480563C18.4462 0.0480563 19.2609 0.0733894 20.6542 0.122723C21.3356 0.148056 22.3009 0.160036 23.5516 0.160036C24.6196 0.160036 25.5356 0.137357 26.2982 0.0893568C27.5582 0.0293568 28.6009 4.20284e-05 29.4249 4.20284e-05C31.0222 4.20284e-05 32.2169 0.120037 33.0102 0.36137C33.8036 0.60137 34.4796 1.10136 35.0382 1.86003C35.5982 2.62003 35.8782 3.54402 35.8782 4.63469C35.8782 5.92802 35.4969 7.10405 34.7342 8.16272C33.9702 9.22139 32.7969 10.0614 31.2102 10.6801C31.4636 11.1574 31.7542 11.644 32.0796 12.1427C32.4049 12.6414 32.5956 12.9427 32.6516 13.0494C32.7076 13.1547 32.7662 13.2547 32.8262 13.3507L35.1916 17.0547C35.8222 18.04 36.1622 18.5707 36.2129 18.6427C36.9756 19.704 37.4436 20.3294 37.6169 20.5187C37.7902 20.7107 37.9569 20.8427 38.1209 20.9161C38.2836 20.9907 38.6036 21.0334 39.0809 21.044V22.4534C37.5156 22.4107 36.3809 22.3894 35.6796 22.3894C34.8662 22.3894 34.0582 22.4107 33.2542 22.4534C33.2022 22.2187 33.0809 21.9134 32.8876 21.5414L29.6236 15.8867C28.6876 14.2641 27.8942 12.988 27.2436 12.06C26.9182 11.5894 26.6036 11.2374 26.2982 11.0027L26.4649 10.4734C27.6862 10.5161 28.6062 10.3854 29.2262 10.08C29.8476 9.77604 30.3716 9.23072 30.7982 8.44405C31.2249 7.65872 31.4382 6.77738 31.4382 5.80538C31.4382 4.82138 31.2156 4.00271 30.7676 3.35071C30.3196 2.69871 29.7662 2.2427 29.1049 1.9867C28.6782 1.82536 27.9142 1.74536 26.8169 1.74536C26.3289 1.74536 25.8449 1.78937 25.3676 1.87337C25.3369 2.25871 25.3062 3.12269 25.2756 4.46802C25.2142 7.49335 25.1849 9.51204 25.1849 10.528C25.1849 12.1307 25.1996 13.8307 25.2302 15.6254C25.2702 17.828 25.3009 19.0774 25.3209 19.3774C25.3516 19.9747 25.4076 20.3654 25.4889 20.5467C25.5302 20.632 25.5969 20.7107 25.6876 20.78C25.7796 20.8494 25.9262 20.9054 26.1302 20.948C26.3342 20.9907 26.9236 21.0227 27.8996 21.044V22.4534C26.1609 22.3787 24.4009 22.3414 22.6222 22.3414C21.0356 22.3414 19.5649 22.3787 18.2129 22.4534V21.044C19.3716 21.0014 20.0582 20.9414 20.2716 20.868C20.3942 20.8347 20.4836 20.7814 20.5396 20.708C20.5942 20.632 20.6382 20.4827 20.6689 20.2587C20.7396 19.8414 20.7902 19.212 20.8209 18.3667L20.9436 13.688V7.74137L20.8676 4.35868C20.8476 3.02268 20.7862 2.22138 20.6849 1.95471C20.6342 1.83738 20.5596 1.74536 20.4582 1.68136C20.2156 1.55336 19.4662 1.4467 18.2129 1.36137Z" fill="#005596"/>
<path d="M42.5673 10.4696C42.5673 12.8523 42.8926 14.823 43.5433 16.383C44.1953 17.943 45.0286 19.0443 46.046 19.6883C47.062 20.3336 48.262 20.6563 49.646 20.6563C50.9273 20.6563 52.074 20.3483 53.0846 19.735C54.098 19.1203 54.8913 18.083 55.466 16.6203C56.0393 15.1577 56.3273 13.3843 56.3273 11.2976C56.3273 9.86565 56.1726 8.55764 55.862 7.37097C55.5513 6.1843 55.1073 5.17497 54.5273 4.34163C53.9473 3.5083 53.2633 2.87096 52.4753 2.43229C51.6873 1.99229 50.642 1.7723 49.3406 1.7723C47.8553 1.7723 46.5913 2.12162 45.55 2.82296C44.5073 3.52296 43.75 4.55898 43.2767 5.92965C42.8033 7.29898 42.5673 8.81231 42.5673 10.4696ZM37.8687 11.3816C37.8687 9.5123 38.1513 7.88164 38.7153 6.49231C39.2806 5.10298 40.086 3.92298 41.134 2.95231C42.1806 1.98164 43.3193 1.28163 44.55 0.852294C46.1273 0.310961 47.846 0.0402825 49.7073 0.0402825C51.558 0.0402825 53.2353 0.300321 54.7406 0.821655C55.8593 1.22032 56.8473 1.79499 57.7073 2.54565C58.5673 3.29632 59.2206 4.06563 59.6686 4.85229C60.1153 5.64029 60.454 6.50295 60.6833 7.44295C60.9113 8.38295 61.026 9.42031 61.026 10.555C61.026 12.4763 60.6953 14.259 60.034 15.903C59.546 17.131 58.8313 18.2176 57.8913 19.1683C56.95 20.1176 55.8793 20.8496 54.6806 21.3603C53.0326 22.0443 51.15 22.387 49.0353 22.387C46.7473 22.387 44.782 21.971 43.1393 21.1377C41.4966 20.3057 40.2086 19.0763 39.2726 17.4523C38.3366 15.827 37.8687 13.8043 37.8687 11.3816Z" fill="#005596"/>
<path d="M75.6045 0.0441094H77.0085C77.3845 1.13344 77.7551 1.89743 78.1205 2.86943C79.7071 7.14276 80.6632 9.68543 80.9872 10.4961L82.8178 15.2401L84.5898 8.05477C85.2698 5.2161 85.6632 3.47609 85.7632 2.83476C85.7938 2.66409 85.8085 2.50407 85.8085 2.35474C85.8085 2.13074 85.7618 1.95344 85.6658 1.82544C85.5671 1.69744 85.4231 1.60676 85.2298 1.55343C85.1391 1.53209 84.4978 1.47344 83.3071 1.37744V0.048097C85.1285 0.122764 86.2311 0.160076 86.6178 0.160076L90.2178 0.048097V1.37744C90.0658 1.38811 89.9538 1.39876 89.8832 1.40943C89.2418 1.45209 88.8498 1.51611 88.7072 1.60144C88.5658 1.68678 88.4285 1.84143 88.2965 2.06543C88.1632 2.29076 87.8152 3.39077 87.2512 5.36544C86.6872 7.34011 85.8578 10.5094 84.7658 14.8708C83.6712 19.2321 83.0685 21.6601 82.9565 22.4281H80.6218L78.9778 17.9174L74.8151 6.79342C74.3765 7.79742 72.8151 11.6334 70.1285 18.3014L68.4952 22.4281H66.2832L62.7365 5.52543C62.3485 3.64677 62.0738 2.52009 61.9098 2.14543C61.7978 1.88009 61.6458 1.69744 61.4512 1.60144C61.2072 1.47344 60.6778 1.39878 59.8618 1.37744V0.048097L64.1218 0.160076L69.1125 0.048097V1.37744C68.2178 1.40944 67.7245 1.43074 67.6325 1.44141C67.3472 1.48407 67.1458 1.56675 67.0232 1.68941C66.9005 1.81208 66.8392 1.99743 66.8392 2.24276C66.8392 2.36009 66.8485 2.49609 66.8632 2.65076C66.8792 2.80542 66.9818 3.42142 67.1752 4.50008C67.5538 6.61608 67.8285 8.09343 68.0018 8.93343L69.3645 15.3907C69.4765 15.1041 69.9018 14.0281 70.6431 12.1654L72.5605 7.48808L74.9805 1.40544C75.1832 0.893437 75.3912 0.618776 75.6045 0.0441094Z" fill="#005596"/>
<path d="M91.9428 13.8474C92.9002 13.8794 93.9855 13.8941 95.1975 13.8941C96.3695 13.8941 97.4188 13.8794 98.3455 13.8474L95.0815 5.6261L91.9428 13.8474ZM85.2148 22.4528V21.1328C86.0388 21.0701 86.5295 21.0141 86.6882 20.9648C86.8442 20.9168 86.9802 20.8447 87.0908 20.7434C87.2042 20.6421 87.3175 20.4834 87.4348 20.2661C87.5508 20.0487 87.9002 19.2408 88.4802 17.8394C88.7442 17.1821 89.2535 15.8834 90.0055 13.9421L93.9868 3.69808L95.3295 0.0874017H97.4962L104.315 16.6941L105.261 18.8741L105.871 20.3368C105.972 20.5274 106.068 20.6661 106.16 20.7514C106.252 20.8354 106.356 20.9008 106.474 20.9421C106.591 20.9848 106.887 21.0208 107.365 21.0528C107.517 21.0754 107.742 21.1008 108.036 21.1328V22.4528L103.798 22.3421L98.4428 22.4528V21.1328C99.6748 21.0794 100.368 21.0088 100.525 20.9181C100.683 20.8288 100.763 20.6781 100.763 20.4661C100.763 20.2021 100.646 19.7701 100.412 19.1661L99.1015 15.6768H91.2375L90.5682 17.5794C90.0615 19.0394 89.8082 19.9487 89.8082 20.3074C89.8082 20.5621 89.8895 20.7407 90.0522 20.8474C90.2948 20.9954 91.0215 21.0914 92.2308 21.1328V22.4528L88.7122 22.3421L85.2148 22.4528Z" fill="#005596"/>
<path d="M108.643 1.36137V0.0480563C108.877 0.0480563 109.692 0.0733894 111.084 0.122723C111.765 0.148056 112.732 0.160036 113.984 0.160036C115.051 0.160036 115.967 0.137357 116.728 0.0893568C117.989 0.0293568 119.032 4.20284e-05 119.856 4.20284e-05C121.452 4.20284e-05 122.648 0.120037 123.44 0.36137C124.235 0.60137 124.911 1.10136 125.469 1.86003C126.029 2.62003 126.308 3.54402 126.308 4.63469C126.308 5.92802 125.928 7.10405 125.164 8.16272C124.401 9.22139 123.228 10.0614 121.641 10.6801C121.895 11.1574 122.184 11.644 122.511 12.1427C122.836 12.6414 123.027 12.9427 123.083 13.0494C123.137 13.1547 123.197 13.2547 123.257 13.3507L125.623 17.0547C126.253 18.04 126.595 18.5707 126.644 18.6427C127.407 19.704 127.875 20.3294 128.048 20.5187C128.221 20.7107 128.389 20.8427 128.551 20.9161C128.715 20.9907 129.035 21.0334 129.512 21.044V22.4534C127.947 22.4107 126.812 22.3894 126.111 22.3894C125.297 22.3894 124.488 22.4107 123.685 22.4534C123.633 22.2187 123.512 21.9134 123.32 21.5414L120.055 15.8867C119.117 14.2641 118.325 12.988 117.676 12.06C117.349 11.5894 117.033 11.2374 116.728 11.0027L116.896 10.4734C118.117 10.5161 119.037 10.3854 119.657 10.08C120.279 9.77604 120.801 9.23072 121.229 8.44405C121.656 7.65872 121.869 6.77738 121.869 5.80538C121.869 4.82138 121.645 4.00271 121.199 3.35071C120.751 2.69871 120.197 2.2427 119.536 1.9867C119.109 1.82536 118.347 1.74536 117.247 1.74536C116.76 1.74536 116.276 1.78937 115.797 1.87337C115.768 2.25871 115.737 3.12269 115.707 4.46802C115.645 7.49335 115.615 9.51204 115.615 10.528C115.615 12.1307 115.631 13.8307 115.661 15.6254C115.703 17.828 115.732 19.0774 115.752 19.3774C115.784 19.9747 115.839 20.3654 115.92 20.5467C115.961 20.632 116.027 20.7107 116.117 20.78C116.211 20.8494 116.357 20.9054 116.561 20.948C116.765 20.9907 117.355 21.0227 118.331 21.044V22.4534C116.592 22.3787 114.832 22.3414 113.052 22.3414C111.465 22.3414 109.996 22.3787 108.643 22.4534V21.044C109.804 21.0014 110.489 20.9414 110.703 20.868C110.825 20.8347 110.915 20.7814 110.971 20.708C111.027 20.632 111.069 20.4827 111.1 20.2587C111.171 19.8414 111.223 19.212 111.252 18.3667L111.375 13.688V7.74137L111.299 4.35868C111.277 3.02268 111.217 2.22138 111.116 1.95471C111.067 1.83738 110.989 1.74536 110.889 1.68136C110.645 1.55336 109.897 1.4467 108.643 1.36137Z" fill="#005596"/>
<path d="M136.641 20.4832C137.586 20.6432 138.491 20.7232 139.355 20.7232C140.709 20.7232 141.909 20.5739 142.955 20.2752C143.729 20.0499 144.405 19.7259 144.985 19.2979C145.563 18.8712 146.121 18.2405 146.655 17.4085C147.189 16.5752 147.603 15.5832 147.898 14.4299C148.194 13.2765 148.341 12.0325 148.341 10.6979C148.341 9.48054 148.194 8.30453 147.898 7.1672C147.603 6.02986 147.121 5.03388 146.449 4.18054C145.778 3.32588 144.929 2.70719 143.902 2.32186C142.874 1.93786 141.319 1.74585 139.234 1.74585C138.45 1.74585 137.586 1.81519 136.641 1.95386C136.538 3.46853 136.487 6.32185 136.487 10.5152V14.1952C136.487 17.3739 136.538 19.4699 136.641 20.4832ZM130.554 22.4539V21.6845C130.634 21.6312 130.775 21.5459 130.977 21.4285C131.359 21.2045 131.711 20.9699 132.034 20.7232C132.146 19.2939 132.201 16.9712 132.201 13.7565V11.1312C132.201 9.72052 132.175 7.6552 132.126 4.93254C132.094 3.4272 132.03 2.46585 131.927 2.04985C131.897 1.95385 131.857 1.87918 131.806 1.82585C131.726 1.74051 131.599 1.67654 131.427 1.63387C131.255 1.59121 130.618 1.4952 129.517 1.34587V0.0485446L135.05 0.160524C135.701 0.160524 136.925 0.129866 138.725 0.0698662C140.025 0.0338662 141.066 0.0165215 141.85 0.0165215C143.649 0.0165215 145.089 0.131182 146.17 0.360516C147.254 0.591182 148.195 0.959196 148.999 1.46586C149.802 1.97253 150.481 2.57388 151.035 3.26721C151.589 3.96055 152.007 4.70851 152.293 5.50985C152.77 6.85518 153.009 8.32852 153.009 9.92985C153.009 11.9699 152.651 13.7899 151.941 15.3899C151.23 16.9912 150.251 18.3325 149.007 19.4099C147.762 20.4899 146.413 21.2659 144.959 21.7405C143.506 22.2152 141.753 22.4539 139.701 22.4539L135.173 22.3419L130.554 22.4539Z" fill="#005596"/>
<path d="M156.544 1.54191C156.432 1.47924 156.253 1.44857 156.008 1.44857H155.629V2.35791H156.029C156.217 2.35791 156.357 2.33925 156.452 2.30192C156.625 2.23392 156.711 2.10325 156.711 1.90991C156.711 1.72725 156.656 1.60458 156.544 1.54191ZM156.065 1.14591C156.377 1.14591 156.607 1.17657 156.752 1.23657C157.012 1.34457 157.141 1.55656 157.141 1.87256C157.141 2.09789 157.06 2.26324 156.896 2.36857C156.809 2.42457 156.688 2.46592 156.533 2.49125C156.729 2.52192 156.873 2.60324 156.964 2.73657C157.055 2.86991 157.101 2.99923 157.101 3.1259V3.3099C157.101 3.36723 157.103 3.42992 157.107 3.49658C157.111 3.56192 157.119 3.6059 157.128 3.62724L157.144 3.65792H156.729C156.728 3.64992 156.725 3.6419 156.724 3.63257C156.721 3.62457 156.72 3.61525 156.717 3.60592L156.708 3.52458V3.32589C156.708 3.03522 156.629 2.84455 156.471 2.75122C156.377 2.69655 156.213 2.66992 155.979 2.66992H155.629V3.65792H155.187V1.14591H156.065ZM154.72 1.0179C154.337 1.40324 154.147 1.86726 154.147 2.41126C154.147 2.96059 154.336 3.42722 154.716 3.81388C155.099 4.20055 155.563 4.39392 156.109 4.39392C156.656 4.39392 157.12 4.20055 157.503 3.81388C157.885 3.42722 158.076 2.96059 158.076 2.41126C158.076 1.86726 157.885 1.40324 157.503 1.0179C157.119 0.631237 156.655 0.43925 156.109 0.43925C155.568 0.43925 155.104 0.631237 154.72 1.0179ZM157.731 4.03255C157.284 4.48055 156.744 4.70459 156.109 4.70459C155.476 4.70459 154.936 4.48055 154.492 4.03255C154.049 3.58589 153.828 3.04457 153.828 2.40857C153.828 1.77924 154.052 1.24057 154.499 0.793905C154.943 0.349905 155.48 0.127238 156.109 0.127238C156.744 0.127238 157.284 0.349905 157.731 0.793905C158.177 1.2379 158.4 1.77657 158.4 2.40857C158.4 3.0419 158.177 3.58322 157.731 4.03255Z" fill="#005596"/>
</svg>
