<svg width="139" height="40" viewBox="0 0 139 40" fill="none" xmlns="http://www.w3.org/2000/svg">
<path d="M15.675 14.8V8.1C15.675 7.6 15.575 7.2 15.575 7.2C15.575 7.2 16.075 7.3 16.475 7.3H21.475C25.275 7.3 27.575 7.9 27.575 11.4C27.575 13.7 26.175 15.7 21.675 15.7H16.475C15.975 15.7 15.575 15.8 15.575 15.8C15.575 15.8 15.675 15.3 15.675 14.8ZM15.675 30.2V22.5C15.675 22 15.575 21.6 15.575 21.6C15.575 21.6 16.075 21.7 16.475 21.7H20.775C24.175 21.7 28.375 21.7 28.375 26.4C28.375 29.9 25.375 31.1 21.375 31.1H16.575C16.075 31.1 15.675 31.2 15.675 31.2C15.675 31.2 15.675 30.6 15.675 30.2ZM3.475 3.1V35.3C3.475 36.3 3.575 36.7 2.775 37.2C2.075 37.6 1.275 37.7 0.075 37.9C-0.025 37.9 -0.025 38.4 0.075 38.4H26.175C37.175 38.4 41.775 34 41.775 27.2C41.775 22.2 39.475 19.1 34.775 17.9C34.675 17.9 34.675 17.8 34.775 17.8C37.775 16.9 40.475 14.7 40.475 9.5C40.475 2.4 35.675 0 25.175 0H0.174998C0.0749985 0 0.0749985 0.5 0.174998 0.5C1.375 0.7 2.075 0.800001 2.875 1.2C3.575 1.7 3.475 2.1 3.475 3.1Z" fill="#002E5D"/>
<path d="M134.875 3.1C134.875 2.1 134.775 1.7 135.575 1.2C136.275 0.700001 137.075 0.7 138.275 0.5C138.375 0.5 138.375 0 138.275 0H119.075C118.975 0 118.975 0.4 119.075 0.5C120.275 0.7 120.875 0.800001 121.575 1.2C122.275 1.7 122.275 2 122.275 3.1V22.5C122.275 26.9 119.775 30.3 114.675 30.3C109.675 30.3 107.075 26.9 107.075 22.5V3.1C107.075 2.1 106.975 1.7 107.775 1.2C108.475 0.800001 109.075 0.6 110.275 0.5C110.375 0.5 110.375 0 110.275 0H92.1751C92.0751 0 92.0751 0.5 92.1751 0.5C92.8751 0.5 93.2751 0.6 93.6751 0.9C94.2751 1.4 94.3751 2 94.3751 3.1V22.1C94.3751 31.3 99.3751 39.1 114.675 39.1C129.875 39.1 134.975 31.3 134.975 22.1L134.875 3.1Z" fill="#002E5D"/>
<path d="M76.5751 38.5C76.6751 38.5 76.6751 38 76.5751 38C75.3751 37.8 74.6751 37.7 73.8751 37.3C73.1751 36.8 73.1751 36.5 73.1751 35.4V23.1L86.4751 3.4C87.1751 2.3 87.6751 1.8 88.2751 1.2C88.3751 1.1 88.5751 1 88.7751 0.9C89.2751 0.6 89.5751 0.6 90.1751 0.5C90.2751 0.5 90.3751 0 90.1751 0H72.2751C72.1751 0 72.1751 0.5 72.2751 0.5C73.1751 0.5 74.1751 0.500001 74.0751 1.8C73.9751 3 68.7751 10.5 66.9751 13.3C66.6751 13.7 66.4751 14.1 66.3751 14.6C66.2751 14.1 65.9751 13.6 65.7751 13.3C63.1751 9.5 58.7751 3.3 58.6751 1.8C58.5751 0.500001 59.5751 0.5 60.4751 0.5C60.5751 0.5 60.6751 0 60.4751 0H41.6751C41.5751 0 41.5751 0.4 41.6751 0.5C42.4751 0.6 42.8751 0.5 43.8751 1C43.9751 1.1 44.2751 1.2 44.3751 1.3C44.9751 1.8 45.3751 2.3 46.0751 3.4L59.3751 23.1V35.4C59.3751 36.4 59.4751 36.8 58.6751 37.3C57.9751 37.7 57.1751 37.8 55.9751 38C55.8751 38 55.8751 38.5 55.9751 38.5H76.5751Z" fill="#002E5D"/>
</svg>
