<svg width="303" height="138" viewBox="0 0 303 138" fill="none" xmlns="http://www.w3.org/2000/svg">
<rect width="302.2" height="137.85" fill="#003385"/>
<g clip-path="url(#clip0_262_19)">
<path d="M124.44 53.45C124.44 60.95 118.93 66.33 111.16 66.33H100.75V40.61H111.16C119 40.61 124.44 45.93 124.44 53.45ZM117.18 53.45C117.231 52.6028 117.102 51.7544 116.801 50.9608C116.5 50.1673 116.034 49.4466 115.434 48.8465C114.833 48.2463 114.113 47.7803 113.319 47.4793C112.526 47.1782 111.677 47.0489 110.83 47.1H107.83V59.84H110.83C111.681 59.8916 112.533 59.7614 113.329 59.458C114.126 59.1545 114.849 58.6849 115.449 58.0803C116.05 57.4757 116.515 56.7501 116.814 55.9516C117.112 55.1532 117.237 54.3004 117.18 53.45Z" fill="white"/>
<path d="M141.64 62.15H132.52L131.1 66.33H123.5L133.61 40.61H140.53L150.86 66.33H143.06L141.64 62.15ZM137.07 48.64L134.25 56.64H139.91L137.07 48.64Z" fill="white"/>
<path d="M170.07 59.84V66.33H153.73V40.61H160.91V59.84H170.07Z" fill="white"/>
<path d="M188.94 59.84V66.33H172.6V40.61H179.78V59.84H188.94Z" fill="white"/>
<path d="M208.57 62.15H199.45L198 66.33H190.4L200.54 40.61H207.46L217.79 66.33H210L208.57 62.15ZM204 48.64L201.18 56.64H206.84L204 48.64Z" fill="white"/>
<path d="M217.07 58H224.38C224.377 58.3832 224.454 58.7629 224.608 59.1142C224.761 59.4656 224.986 59.7807 225.269 60.0392C225.552 60.2976 225.886 60.4936 226.25 60.6144C226.614 60.7351 226.999 60.7779 227.38 60.74C228.86 60.74 230.28 59.95 230.28 58.54C230.28 56.93 228.28 56.46 225.83 55.87C222.14 55 217.4 53.82 217.4 48C217.4 42.93 221.12 40 227.18 40C233.24 40 236.89 43.17 236.89 48.4H229.78C229.78 46.77 228.57 46.01 227.1 46.01C225.84 46.01 224.62 46.56 224.62 47.76C224.62 49.22 226.56 49.7 228.98 50.31C232.77 51.31 237.72 52.55 237.72 58.43C237.72 64.04 233.4 66.96 227.43 66.96C221.13 67 217.07 63.63 217.07 58Z" fill="white"/>
<path d="M113.09 97.85C111.294 97.9058 109.506 97.5964 107.834 96.9406C106.161 96.2849 104.64 95.2964 103.361 94.0351C102.081 92.7738 101.072 91.2659 100.393 89.6028C99.7136 87.9397 99.3793 86.1561 99.4099 84.36C99.3738 82.5606 99.7041 80.7726 100.381 79.1048C101.057 77.437 102.066 75.9243 103.346 74.6587C104.625 73.3931 106.149 72.401 107.824 71.7428C109.499 71.0846 111.291 70.774 113.09 70.83C116.23 70.7455 119.291 71.8203 121.689 73.8493C124.087 75.8783 125.654 78.7193 126.09 81.83H118.92C118.548 80.5766 117.782 79.4765 116.735 78.693C115.689 77.9094 114.417 77.484 113.11 77.48C109.46 77.48 106.79 80.41 106.79 84.39C106.79 88.37 109.46 91.24 113.11 91.24C114.473 91.2453 115.796 90.7793 116.855 89.921C117.914 89.0626 118.643 87.8647 118.92 86.53H126.17C125.792 89.7074 124.242 92.6292 121.822 94.7232C119.403 96.8171 116.289 97.9322 113.09 97.85Z" fill="white"/>
<path d="M142.62 97.85C134.35 97.85 128.45 92.2 128.45 84.34C128.45 76.48 134.35 70.83 142.62 70.83C150.89 70.83 156.75 76.46 156.75 84.34C156.75 92.22 150.87 97.85 142.62 97.85ZM142.62 91.26C143.527 91.2802 144.428 91.1137 145.267 90.7709C146.106 90.428 146.866 89.9162 147.499 89.2671C148.132 88.6181 148.625 87.8457 148.947 86.9981C149.269 86.1505 149.413 85.2457 149.37 84.34C149.37 82.5445 148.657 80.8225 147.387 79.5529C146.118 78.2833 144.396 77.57 142.6 77.57C140.805 77.57 139.083 78.2833 137.813 79.5529C136.543 80.8225 135.83 82.5445 135.83 84.34C135.792 85.248 135.94 86.1543 136.266 87.0027C136.592 87.8511 137.088 88.6236 137.725 89.2723C138.361 89.921 139.124 90.4321 139.966 90.774C140.808 91.1159 141.712 91.2813 142.62 91.26Z" fill="white"/>
<path d="M175.74 90.71V97.2H159.4V71.48H166.58V90.71H175.74Z" fill="white"/>
<path d="M194.69 90.71V97.2H178.35V71.48H185.53V90.71H194.69Z" fill="white"/>
<path d="M214.07 91.05V97.2H197.3V71.48H213.76V77.6H204.36V81.39H212.81V87.2H204.36V91.05H214.07Z" fill="white"/>
<path d="M242.82 83.45C242.82 91.87 237.32 97.85 229.27 97.85C221.38 97.85 215.56 92.18 215.56 84.36C215.56 76.54 221.28 70.83 229.2 70.83C235.95 70.83 241.46 75.05 242.55 81.02H235.12C234.598 79.9209 233.766 78.9983 232.727 78.3658C231.687 77.7333 230.486 77.4184 229.27 77.46C225.41 77.46 222.82 80.25 222.82 84.36C222.82 88.47 225.37 91.21 229.27 91.21C231.97 91.21 234.27 89.9 235.1 87.92H228.71V83.45H242.82Z" fill="white"/>
<path d="M262.2 91.05V97.2H245.43V71.48H261.89V77.6H252.49V81.39H260.93V87.2H252.49V91.05H262.2Z" fill="white"/>
<path d="M62.55 82.92H56.05V71.44H40V97.2H63.29C79.47 97.2 91.21 86.59 92.4 71.44H76.33C75.29 78.36 70 82.92 62.55 82.92Z" fill="white"/>
<path d="M56 54.88H62.5C70.03 54.88 75.3 59.37 76.3 66.37H92.4C91.25 51.15 79.54 40.6 63.28 40.6H40V66.37H56V54.88Z" fill="white"/>
<path d="M66.1102 60.82L67.9102 66.36H73.7302L69.0202 69.78L70.8202 75.32L66.1102 71.9L61.4002 75.32L63.2002 69.78L58.4902 66.36H64.3102L66.1102 60.82Z" fill="white"/>
</g>
<defs>
<clipPath id="clip0_262_19">
<rect width="222.2" height="57.85" fill="white" transform="translate(40 40)"/>
</clipPath>
</defs>
</svg>
