<svg width="618" height="202" viewBox="0 0 1593.4 521.18" class="drizzle-logo" id="Layer_1" xmlns="http://www.w3.org/2000/svg"><defs><style>.cls-1{fill:#fff;}.cls-2{fill:#c10230;}</style></defs><g></g>
              <title>
                UGA Office of Online Learning Design System
              </title>
              <path class="cls-2 drizzle-logo__text" d="m882.99,200.25h-.17c-62.86,0-95.76,44.56-95.76,88.59,0,50.5,39.74,88.59,92.43,88.59,54.47,0,94.01-38.14,94.01-90.69,0-49.31-38.91-86.49-90.51-86.49Zm47.79,93.66c0,42.1-18.14,69.3-46.22,69.3-31.74,0-54.79-33.19-54.79-78.91,0-41.21,19.73-70,47.97-70h.18c32.11,0,52.86,31.25,52.86,79.61Z"></path>
              <path class="cls-2 drizzle-logo__text" d="m608.85,303.29v64.61s-6.74,1.51-6.74,1.51c-15.84,3.57-35.55,8.02-53.87,8.02-62.95,0-103.63-34.16-103.63-87.02,0-61.95,53.66-90.16,103.52-90.16,22.53,0,55.06,8.95,55.06,8.95v40.4s-15.63-35.27-53.84-35.27c-25.65,0-48.83,17.45-57.68,43.43-2.95,9.09-4.51,18.87-4.51,28.28,0,53.55,31.99,77.51,63.7,77.51,4.75,0,11.12-.77,14.79-2.94,3.67-2.27,5.55-6.72,5.55-13.2v-38.17c0-22.02-15.89-28.53-15.89-28.53h65.04s-11.51,2.87-11.51,22.58Z"></path>
              <path class="cls-2 drizzle-logo__text" d="m1311.88,303.29v64.61s-6.74,1.51-6.74,1.51c-15.84,3.57-35.55,8.02-53.87,8.02-62.95,0-103.63-34.16-103.63-87.02,0-61.95,53.66-90.16,103.52-90.16,22.53,0,55.06,8.95,55.06,8.95v40.4s-15.63-35.27-53.84-35.27c-25.65,0-48.83,17.45-57.68,43.43-2.95,9.09-4.51,18.87-4.51,28.28,0,53.55,31.99,77.51,63.7,77.51,4.75,0,11.12-.77,14.79-2.94,3.67-2.27,5.55-6.72,5.55-13.2v-38.17c0-22.02-15.89-28.53-15.89-28.53h65.04s-11.51,2.87-11.51,22.58Z"></path>
              <path class="cls-2 drizzle-logo__text" d="m716.98,358.84c-11.12,0-17.17-.34-21.47-2.33-4.56-1.92-5.37-7.9-5.37-19.76v-41.84h20.82c18.81,0,31.68,1.06,35.47,10.19v-37.05c-3.59,9.09-15.88,10.71-35.47,10.71h-20.82v-52.86q0-7.4,9.33-7.4h25.11c15.4,0,22.96,2.56,29.26,10.31,6.3,7.74,10.35,19.4,10.35,19.4v-44.11s-126.4,0-126.4,0c3.98,2.66,14.35,12.1,14.35,38.32l-.04,91.79c0,32.44-15.85,39.2-15.85,39.2h131.02s0-47.41,0-47.41c0,0-7.03,13.98-15.64,23.73-8.62,9.74-31.37,9.11-34.65,9.11Z"></path>
              <path class="cls-2 drizzle-logo__text" d="m1080.88,253c0,12.99-3.84,22.35-12.07,29.44h-.01c-4.93,4.34-13.24,6.45-25.4,6.45h-4.96v-60.9c0-4.83.5-7.17,1.72-8.27,1.99-1.63,5.79-2.46,11.28-2.46,14.23,0,29.43,9.39,29.43,35.73Zm33.47,82.36c-7.47-12.28-18.81-30.64-24.42-41.02,12.04-5.02,30.37-16.7,30.37-41.25v-.05c.09-1.21.15-2.44.15-3.71,0-14.8-6.38-27.36-17.98-35.35-10.71-7.2-23.83-9.87-48.4-9.87h-66.75c3.98,2.66,14.35,12.1,14.35,38.32l-.04,91.79c0,32.44-15.85,39.2-15.85,39.2h68.51s-15.85-6.77-15.85-39.2v-32.13h3.56c7.72,0,12.15,2.69,16.34,9.89,2.6,4.61,5.1,9.23,7.54,13.72,4.78,8.82,10.95,20.58,15.45,27.47,10.63,16.24,20.87,23.31,53.47,22.27,0,0,5.56-.2,9.8-.56,0,0-11.17-8.11-30.25-39.5Z"></path>
              <path class="cls-2 drizzle-logo__text" d="m1409.3,373.41s-15.85-6.77-15.85-39.2l-.04-91.79c0-26.22,10.38-35.66,14.35-38.32h-65.48c3.98,2.66,14.35,12.1,14.35,38.32l-.04,91.79c0,32.44-15.85,39.2-15.85,39.2h68.55Z"></path>
              <path class="cls-2 drizzle-logo__text" d="m1593.4,373.41c-14.51-8.99-18.42-17.58-26.76-39.31-14.08-36.33-33.5-88.03-48.84-129.02l-.37-.98h-17.99l-53.85,130.86c-5.91,14.6-16.47,32.22-28.65,38.45h47.37c-10.15-4.24-7.84-17.54-3.67-28.02.79-2.2,4.08-10.32,8.39-20.83h53.67c4.31,11.93,7.58,20.99,8.04,22.31,3.39,9.54,3.09,16.7-5.32,26.54h67.97Zm-117.5-65.52c10.23-24.77,21.78-52.48,21.78-52.48,0,0,9.99,27.58,19,52.48h-40.78Z"></path>
              <path class="drizzle-logo__text" d="m472.68,135.03v-37.19c0-3.41-1.11-4.4-9.33-4.73v-4.95h38.12v4.95c-5.44.33-8.67,1.1-8.67,4.73v37.74c0,12.88,5.89,18.38,17.78,18.38,4.78,0,8.56-1.32,11.33-4.07,3.45-3.41,5.11-8.14,5.11-16.51v-23.66c0-10.56-2.33-15.63-12.89-16.62v-4.95h30v4.95c-9.89,1.21-10.33,6.05-10.33,16.62v25.53c0,16.83-9.22,27.07-29,27.07s-32.12-7.7-32.12-27.29Z"></path>
              <path class="drizzle-logo__text" d="m583.46,109.06h-.67v29.93c0,10.67,1.33,15.63,12,16.62v4.95h-29.56v-4.95c9.89-1.1,11.12-5.83,11.12-16.62v-35.43c0-5.83-2.11-10.23-11.12-10.45v-4.95h26.23l38.12,47.42h.67v-25.86c0-10.56-2.33-15.63-12.89-16.62v-4.95h29.67v4.95c-9.89,1.21-10.33,6.05-10.33,16.62v51.49h-11.22l-42.01-52.15Z"></path>
              <path class="drizzle-logo__text" d="m668.58,155.61c8.22-.33,9.56-1.32,9.56-4.73v-53.04c0-3.41-1.34-4.4-9.56-4.73v-4.95h39.23v4.95c-8.23.33-9.56,1.32-9.56,4.73v53.04c0,3.41,1.33,4.4,9.56,4.73v4.95h-39.23v-4.95Z"></path>
              <path class="drizzle-logo__text" d="m738.87,100.26c-1.78-4.62-3.78-5.83-10.78-7.15v-4.95h41.23v4.95c-9.67.55-11,2.53-9.67,6.27l15.67,44.67h1.11l13.11-37.52c3.33-9.57,3.33-11.88-7.11-13.42v-4.95h28.12v4.95c-7.56,1.54-8.56,4.18-12.11,13.31l-20.89,54.79h-15.78l-22.89-60.96Z"></path>
              <path class="drizzle-logo__text" d="m827.61,155.61c8.23-.33,9.34-1.32,9.34-4.73v-53.04c0-3.41-1.11-4.4-9.34-4.73v-4.95h64.9l1,25.97-6,.22c-4.33-12.43-8.56-20.91-22.11-20.91h-8.34v27.95h1.67c7.11,0,9.56-.99,13.45-10.78h5v27.18h-5c-3.89-9.79-6.34-11.11-13.45-11.11h-1.67v28.5h7.23c16.22,0,20.67-8.69,25.78-22.78l6,.22-1.11,27.95h-67.35v-4.95Z"></path>
              <path class="drizzle-logo__text" d="m952.67,150.88c0,3.63,3.22,4.4,8.67,4.73v4.95h-38.12v-4.95c8.22-.33,9.33-1.32,9.33-4.73v-53.04c0-3.41-1.11-4.4-9.33-4.73v-4.95h39.45c22.23,0,28.78,8.47,28.78,17.61s-5,15.63-21.89,18.16v.33c15.56.11,19.89,6.16,20.78,14.53l.89,7.92c.78,7.37,1.89,8.47,9.78,8.91v4.95c-4.33.33-8,.44-11.33.44-16.23,0-18.67-4.18-19.34-12.87l-.67-8.47c-.44-10.56-2.78-12.77-14.22-12.77h-2.78v23.99Zm4.45-29.05c11.44,0,13.78-3.63,13.78-14.63,0-9.02-3.11-13.76-14.56-13.76h-3.66v28.39h4.45Z"></path>
              <path class="drizzle-logo__text" d="m1024.9,136.57h6c5.67,12.1,13.34,20.25,22.56,20.25,8.22,0,11.78-5.39,11.78-10.56,0-7.04-4-9.9-16-13.42-12.34-3.63-23.9-9.13-23.9-22.67s10.23-23.77,26.12-23.77c5.67,0,11.89,1.65,15.23,3.52l3-3.96h5.67v22.89h-6c-5.33-10.45-11.56-16.95-19.23-16.95-6,0-10,4.07-10,9.68,0,7.04,4.33,9.35,17,13.2,10.23,3.08,21.67,8.25,21.67,21.9s-8.22,25.64-27.45,25.64c-6,0-13.45-1.1-17.78-3.52l-3,3.96h-5.67v-26.19Z"></path>
              <path class="drizzle-logo__text" d="m1102.74,155.61c8.23-.33,9.56-1.32,9.56-4.73v-53.04c0-3.41-1.33-4.4-9.56-4.73v-4.95h39.23v4.95c-8.22.33-9.56,1.32-9.56,4.73v53.04c0,3.41,1.34,4.4,9.56,4.73v4.95h-39.23v-4.95Z"></path>
              <path class="drizzle-logo__text" d="m1182.53,155.61c9.22-.22,11-1.32,11-4.73v-57.44h-.89c-8.11,0-12.89,7.81-18.45,20.91l-5.78-.22.56-25.97h69.23l.56,25.97-5.78.22c-5.45-13.53-10.33-20.91-18.45-20.91h-.89v57.44c0,3.41,1.78,4.51,11,4.73v4.95h-42.12v-4.95Z"></path>
              <path class="drizzle-logo__text" d="m1316.49,105.54c5.11-8.47,4.45-11.44-4.34-12.43v-4.95h27.01v4.95c-6.67.99-8.89,3.85-13.67,11.33l-15.11,23.66v22.78c0,3.41,1.34,4.4,9.56,4.73v4.95h-39.23v-4.95c8.23-.33,9.56-1.32,9.56-4.73v-20.36l-18.45-30.7c-2.67-4.4-4.45-5.94-11.22-6.71v-4.95h40.01v4.95c-9.45.44-9.33,2.42-6.89,6.82l12.45,22.56,10.34-16.94Z"></path>
              <path class="drizzle-logo__text" d="m1392.72,124.58c0-23.22,14.78-38.18,37.45-38.18s37.45,14.53,37.45,37.74-14.78,38.18-37.45,38.18-37.45-14.41-37.45-37.74Zm53.34-.22c0-23.55-4.55-32.46-16.34-32.46s-15.45,8.91-15.45,32.46,4.56,32.46,16.34,32.46,15.45-8.8,15.45-32.46Z"></path>
              <path class="drizzle-logo__text" d="m1488.07,155.61c8.22-.33,9.33-1.32,9.33-4.73v-53.04c0-3.41-1.11-4.4-9.33-4.73v-4.95h64.9v25.97l-6,.22c-4.67-13.2-9.78-20.91-23.34-20.91h-6.11v28.83h1.89c7.11,0,9.56-.77,13.23-9.9h5v26.3h-5c-3.89-9.79-6.11-11.11-13.23-11.11h-1.89v23.33c0,3.63.11,4.62,10,4.95v4.73h-39.45v-4.95Z"></path>
              <g><g><path d="m169.04,168.08v150.39c0,3.46-1.91,6.6-4.98,8.2-.52.28-.85.8-.85,1.39v27.76h-62.54l-11.66,11.07v-38.8c0-.59-.31-1.14-.85-1.42-3.07-1.57-4.98-4.72-4.98-8.2v-150.67c.15-3.35,2.66-6.09,5.88-6.53h74.02c3.38.46,5.96,3.38,5.96,6.81Z"></path>
              <path d="m271.93,142.44H85.68c4.15-20.33,15.07-39.03,30.83-52.71,17.26-15.02,39.4-23.27,62.28-23.27s45.02,8.26,62.31,23.27c15.74,13.67,26.68,32.38,30.83,52.71Z"></path>
              <path class="cls-1" d="m0,0v382.04c0,72.88,91.18,124.17,179.38,139.14,88.21-14.96,179.36-66.25,179.36-139.14V0H0Zm342.57,382.04c0,35.58-27.06,62.07-49.74,78.04-29.62,20.85-70.82,37.05-113.44,44.66-42.62-7.61-83.82-23.81-113.44-44.66-22.7-15.97-49.74-42.47-49.74-78.04v-8.64h41.64v30.7c0,.88.7,1.57,1.57,1.57h28.02c.88,0,1.57-.7,1.57-1.57v-30.7h74.2v30.7c0,.88.7,1.57,1.57,1.57h28.02c.88,0,1.6-.7,1.6-1.57v-30.7h74.17v30.7c0,.88.7,1.57,1.57,1.57h28.02c.88,0,1.6-.7,1.6-1.57v-30.7h42.8v8.64Zm-149.04-55.37c-3.07-1.57-4.98-4.72-4.98-8.2v-150.67c.15-3.35,2.66-6.09,5.88-6.53h74.02c3.38.46,5.96,3.38,5.96,6.81v150.39c0,3.46-1.91,6.6-4.98,8.2-.52.28-.85.8-.85,1.39v27.76h-62.51l-11.66,11.07v-38.8c0-.59-.34-1.14-.88-1.42Zm-107.84-184.23c4.15-20.33,15.07-39.03,30.83-52.71,17.26-15.02,39.4-23.27,62.28-23.27s45.02,8.26,62.31,23.27c15.74,13.67,26.68,32.38,30.83,52.71H85.68Zm3.38,18.83h74.02c3.38.46,5.96,3.38,5.96,6.81v150.39c0,3.46-1.91,6.6-4.98,8.2-.52.28-.85.8-.85,1.39v27.76h-62.54l-11.66,11.07v-38.8c0-.59-.31-1.14-.85-1.42-3.07-1.57-4.98-4.72-4.98-8.2v-150.67c.15-3.35,2.66-6.09,5.88-6.53Zm253.51,194.55h-31.14v.03l-11.66,11.04v-38.8c0-.59-.34-1.14-.85-1.42-3.1-1.57-5.01-4.72-5.01-8.2v-150.67c.15-3.33,2.66-6.06,5.93-6.53.77-.1,1.37-.77,1.37-1.55v-15.71c0-.88-.72-1.57-1.57-1.57h-11.35c-4.33-25.08-17.34-48.09-36.64-64.86-20.2-17.54-46.08-27.22-72.86-27.22s-52.66,9.67-72.83,27.22c-19.3,16.77-32.33,39.78-36.66,64.86h-11.33c-.88,0-1.57.7-1.57,1.57v15.71c0,.77.57,1.44,1.34,1.57,3.38.46,5.93,3.38,5.93,6.78v150.39c0,3.46-1.91,6.6-4.98,8.2-.52.28-.85.8-.85,1.39v27.76H16.2V16.18h326.36v339.65Z"></path>
              <path d="m274.4,168.08v150.39c0,3.46-1.91,6.6-4.98,8.2-.52.28-.85.8-.85,1.39v27.76h-62.51l-11.66,11.07v-38.8c0-.59-.34-1.14-.88-1.42-3.07-1.57-4.98-4.72-4.98-8.2v-150.67c.15-3.35,2.66-6.09,5.88-6.53h74.02c3.38.46,5.96,3.38,5.96,6.81Z"></path>
              <path class="cls-2" d="m299.76,373.4v30.7c0,.88-.72,1.57-1.6,1.57h-28.02c-.88,0-1.57-.7-1.57-1.57v-30.7h-74.17v30.7c0,.88-.72,1.57-1.6,1.57h-28.02c-.88,0-1.57-.7-1.57-1.57v-30.7h-74.2v30.7c0,.88-.7,1.57-1.57,1.57h-28.02c-.88,0-1.57-.7-1.57-1.57v-30.7H16.2v8.64c0,35.58,27.04,62.07,49.74,78.04,29.62,20.85,70.82,37.05,113.44,44.66,42.62-7.61,83.82-23.81,113.44-44.66,22.68-15.97,49.74-42.47,49.74-78.04v-8.64h-42.8Zm-163.75,92.28h-21.96v-2.14c4.26-.15,6.3-.62,6.3-2.66v-22.19c0-1.68-.31-2.68-1.03-3.41-.93-.88-2.5-1.29-5.16-1.29h-.39v-2.06l15.89-1.11v30.06c0,2.04,2.04,2.5,6.35,2.66v2.14Zm36.87-31.09l-9.8,17.39-7.07,14.19h-7.25v-1.91l18.65-25.67.23-.31h-12.59c-5.01,0-6.11,1.21-7.12,5.39h-1.99l.34-12.74h26.6v3.66Zm22.94,32.04c-9.37,0-14.73-3.25-14.73-8.9,0-3.48,2.3-6.17,6.84-7.95l.39-.15-.36-.21c-3.84-2.22-5.8-5.11-5.8-8.54,0-6.6,5.31-10.86,13.54-10.86,8.85,0,12.9,4.33,12.9,8.33,0,3.2-2.32,5.68-6.89,7.4l-.49.18.46.18c5.39,2.32,8.02,5.44,8.02,9.6,0,6.22-5.96,10.91-13.88,10.91Zm38.05-.13c-8.62,0-13.78-2.97-13.78-7.97,0-2.89,2.01-4.8,4.98-4.8s4.44,2.32,4.44,4.62c0,1.93-1.29,3.61-2.58,4.26l-.28.15.26.18c.8.62,3.22,1.21,4.9,1.21,4.82,0,7.28-2.89,7.28-8.62,0-5.13-2.68-8.05-7.33-8.05-3.1,0-5.19.77-7.69,2.14l-1.73-1.37.72-17.34h22.96l-.54,7.07h-19.14l-.41,8.15-.03.34.31-.13c2.58-1.19,5.06-1.68,8.23-1.68,6.42,0,13.29,2.73,13.29,10.37,0,5.52-4.33,11.46-13.85,11.46Z"></path>
              <path d="m342.57,16.18v339.65h-31.14v.03l-11.66,11.04v-38.8c0-.59-.34-1.14-.85-1.42-3.1-1.57-5.01-4.72-5.01-8.2v-150.67c.15-3.33,2.66-6.06,5.93-6.53.77-.1,1.37-.77,1.37-1.55v-15.71c0-.88-.72-1.57-1.57-1.57h-11.35c-4.33-25.08-17.34-48.09-36.64-64.86-20.2-17.54-46.08-27.22-72.86-27.22s-52.66,9.67-72.83,27.22c-19.3,16.77-32.33,39.78-36.66,64.86h-11.33c-.88,0-1.57.7-1.57,1.57v15.71c0,.77.57,1.44,1.34,1.57,3.38.46,5.93,3.38,5.93,6.78v150.39c0,3.46-1.91,6.6-4.98,8.2-.52.28-.85.8-.85,1.39v27.76H16.2V16.18h326.36Z"></path>
              <path class="cls-1" d="m136.02,463.54v2.14h-21.96v-2.14c4.26-.15,6.3-.62,6.3-2.66v-22.19c0-1.68-.31-2.68-1.03-3.41-.93-.88-2.5-1.29-5.16-1.29h-.39v-2.06l15.89-1.11v30.06c0,2.04,2.04,2.5,6.35,2.66Z"></path>
              <path class="cls-1" d="m172.88,430.93v3.66l-9.8,17.39-7.07,14.19h-7.25v-1.91l18.65-25.67.23-.31h-12.59c-5.01,0-6.11,1.21-7.12,5.39h-1.99l.34-12.74h26.6Z"></path>
              <path class="cls-1" d="m201.67,446.12l-.46-.18.49-.18c4.57-1.73,6.89-4.21,6.89-7.4,0-4-4.05-8.33-12.9-8.33-8.23,0-13.54,4.26-13.54,10.86,0,3.43,1.96,6.32,5.8,8.54l.36.21-.39.15c-4.54,1.78-6.84,4.46-6.84,7.95,0,5.65,5.37,8.9,14.73,8.9,7.92,0,13.88-4.7,13.88-10.91,0-4.15-2.63-7.28-8.02-9.6Zm-6.76-13.75c4.08,0,6.71,2.35,6.71,5.99,0,2.55-.77,4.51-2.63,6.6l-.1.1-.1-.05c-4.59-1.68-9.08-3.66-9.08-7.77,0-3.2,2.63-4.88,5.21-4.88Zm.85,31.91c-4.62,0-7.46-3.79-7.46-7.28,0-2.3.77-4.23,2.48-6.04l.08-.1.15.05c.54.26,1.19.49,1.86.67,6.63,2.19,8.98,4.08,8.98,7.2,0,3.33-2.4,5.5-6.09,5.5Z"></path>
              <path class="cls-2" d="m201.86,458.79c0,3.33-2.4,5.5-6.09,5.5-4.62,0-7.46-3.79-7.46-7.28,0-2.3.77-4.23,2.48-6.04l.08-.1.15.05c.54.26,1.19.49,1.86.67,6.63,2.19,8.98,4.08,8.98,7.2Z"></path>
              <path class="cls-2" d="m201.62,438.36c0,2.55-.77,4.51-2.63,6.6l-.1.1-.1-.05c-4.59-1.68-9.08-3.66-9.08-7.77,0-3.2,2.63-4.88,5.21-4.88,4.08,0,6.71,2.35,6.71,5.99Z"></path>
              <path class="cls-1" d="m247.73,455.05c0,5.52-4.33,11.46-13.85,11.46-8.62,0-13.78-2.97-13.78-7.97,0-2.89,2.01-4.8,4.98-4.8s4.44,2.32,4.44,4.62c0,1.93-1.29,3.61-2.58,4.26l-.28.15.26.18c.8.62,3.22,1.21,4.9,1.21,4.82,0,7.28-2.89,7.28-8.62,0-5.13-2.68-8.05-7.33-8.05-3.1,0-5.19.77-7.69,2.14l-1.73-1.37.72-17.34h22.96l-.54,7.07h-19.14l-.41,8.15-.03.34.31-.13c2.58-1.19,5.06-1.68,8.23-1.68,6.42,0,13.29,2.73,13.29,10.37Z"></path></g>
              <path d="m344.23,473.81c0,4.82-3.78,8.59-8.69,8.59s-8.74-3.77-8.74-8.59,3.88-8.48,8.74-8.48,8.69,3.78,8.69,8.48Zm-15.26,0c0,3.78,2.79,6.78,6.62,6.78s6.47-3,6.47-6.72-2.74-6.83-6.52-6.83-6.57,3.05-6.57,6.77Zm5.22,4.45h-1.97v-8.48c.78-.16,1.86-.26,3.26-.26,1.6,0,2.33.26,2.95.62.47.36.83,1.03.83,1.86,0,.93-.72,1.66-1.76,1.96v.11c.83.31,1.3.93,1.55,2.07.26,1.29.41,1.81.62,2.12h-2.12c-.26-.31-.41-1.09-.67-2.07-.16-.93-.67-1.34-1.76-1.34h-.93v3.42Zm.05-4.81h.93c1.09,0,1.97-.36,1.97-1.24,0-.78-.57-1.29-1.81-1.29-.52,0-.88.05-1.09.1v2.43Z"></path></g>
            </svg>