<svg width="386" height="47" viewBox="0 0 386 47" fill="none" xmlns="http://www.w3.org/2000/svg">
<path fill-rule="evenodd" clip-rule="evenodd" d="M301.613 27.736V15.386H307.22L307.876 13.101H301.613V11.195C301.613 8.312 301.723 5.973 301.886 4.283H301.013C298.783 8.475 295.624 11.468 291.16 13.808L290.89 15.386H293.936L293.829 28.549V32.469C293.829 37.309 294.049 40.083 295.896 40.955C302.268 41.007 305.311 41.059 305.311 41.059V40.411C301.94 39.43 301.613 35.624 301.613 27.736ZM276.248 18.154C270.052 16.93 265.562 16.659 263.181 14.752C261.682 13.528 260.867 11.966 260.867 10.127C260.867 5.847 264.811 2.447 271.006 2.447C277.874 2.447 282.23 6.45799 284.138 14.415H285.024L288.152 3.6C283.048 1.29 276.992 0 270.735 0C258.007 0 250.319 5.984 250.319 14.14C250.319 17.54 251.745 20.67 254.193 22.847C257.189 25.5 261.682 26.452 267.468 27.603C275.086 29.099 279.44 30.188 279.44 35.29C279.44 40.864 275.291 44.33 268.15 44.33C259.639 44.33 254.061 39.165 252.358 29.646H251.545L247.802 42.293C253.308 45.082 260.456 46.716 268.623 46.716C281.89 46.716 290.123 39.846 290.123 31.004C290.123 23.999 285.566 19.99 276.248 18.154ZM237.057 30.074V22.568C237.057 19.138 237.057 15.824 237.219 12.613C234.062 13.374 230.359 13.973 226.162 14.515V15.169C229 15.386 229.218 16.853 229.218 20.717V30.512C229.218 36.437 229.05 39.375 225.734 40.464V41.118C228.507 40.955 230.907 40.898 233.026 40.898C235.479 40.898 237.979 40.955 240.541 41.118V40.464C237.219 39.54 237.057 36.492 237.057 30.074ZM348.599 27.736V15.386H354.209L354.863 13.101H348.599V11.195C348.599 8.312 348.712 5.973 348.871 4.283H348.005C345.771 8.475 342.615 11.468 338.152 13.808L337.878 15.386H340.928L340.821 28.549V32.469C340.821 37.309 341.035 40.083 342.886 40.955C349.254 41.007 352.304 41.059 352.304 41.059V40.411C348.927 39.43 348.599 35.624 348.599 27.736ZM368.176 13.536C371.125 13.536 373.242 16.361 373.406 21.423H362.303C363.011 16.254 365.242 13.536 368.176 13.536ZM381.627 29.041C379.882 35.624 376.4 39.047 371.502 39.047C365.786 39.047 362.137 34.371 362.137 25.993C362.137 25.181 362.189 24.307 362.248 23.379H382.662C381.627 15.987 376.455 11.849 368.395 11.849C359.364 11.849 353.103 17.996 353.103 26.647C353.103 35.46 359.363 41.659 368.67 41.659C376.076 41.659 380.868 37.909 383.097 30.344L381.627 29.041ZM383.122 43.906C381.904 43.906 381.014 42.953 381.014 41.752C381.014 40.567 381.904 39.596 383.089 39.596H383.105C384.307 39.596 385.179 40.566 385.179 41.752C385.179 42.953 384.307 43.922 383.122 43.906ZM383.122 39.054H383.105C381.559 39.054 380.324 40.254 380.324 41.752C380.324 43.281 381.559 44.464 383.105 44.464C384.668 44.464 385.869 43.281 385.869 41.752C385.869 40.254 384.669 39.054 383.122 39.054ZM215.332 19.196V12.556C212.88 13.266 209.232 13.92 204.439 14.516V15.169C207.269 15.386 207.487 16.853 207.487 20.717V30.512C207.487 36.492 207.327 39.375 204.008 40.464V41.118C206.778 40.955 209.173 40.898 211.301 40.898C213.751 40.898 216.253 40.955 218.811 41.118V40.464C215.493 39.54 215.333 36.492 215.333 30.074V27.463C215.333 22.347 216.962 19.681 219.849 19.681C220.773 19.681 221.478 20.064 222.021 20.771H222.732L225.724 11.905C225.341 11.849 224.962 11.849 224.633 11.849C220.667 11.849 217.559 14.301 215.332 19.196ZM326.762 26.807C326.762 35.078 325.292 39.264 320.988 39.264C318.323 39.264 316.475 36.875 316.475 32.904C316.475 27.894 319.629 25.07 325.508 25.07C325.891 25.07 326.328 25.07 326.762 25.122V26.807ZM334.82 28.007V25.504C334.82 21.099 334.82 17.996 332.484 15.496C330.354 13.156 326.546 11.849 321.372 11.849C316.856 11.849 312.605 12.773 308.582 14.681L311.086 22.788H311.846C313.48 16.472 315.931 13.536 320.284 13.536C324.479 13.536 326.762 16.853 326.762 23.273V23.49C313.698 23.926 307.22 26.97 307.22 33.012C307.22 37.909 311.63 41.659 318.435 41.659C322.625 41.659 325.346 40.135 327.415 36.492C327.814 38.0699 328.458 39.5758 329.322 40.955H331.718C333.951 40.955 336.179 41.007 338.408 41.059V40.135C335.201 39.43 334.819 35.731 334.819 28.007H334.82ZM382.99 41.637H382.694V40.863C382.759 40.848 382.874 40.83 383.039 40.83C383.435 40.83 383.616 40.995 383.616 41.242C383.616 41.522 383.336 41.637 382.99 41.637ZM383.731 41.833V41.801C384.059 41.702 384.29 41.472 384.29 41.159C384.291 41.0496 384.269 40.9412 384.223 40.8417C384.178 40.7421 384.111 40.6538 384.028 40.583C383.828 40.452 383.599 40.369 383.088 40.369C382.644 40.369 382.298 40.419 382.051 40.469V43.149H382.677V42.081H382.974C383.319 42.081 383.484 42.213 383.532 42.507C383.616 42.82 383.665 43.051 383.748 43.149H384.423C384.356 43.069 384.307 42.904 384.223 42.492C384.143 42.129 383.993 41.917 383.731 41.833ZM71.054 30.074V22.568C71.054 19.138 71.054 15.824 71.218 12.613C68.058 13.374 64.358 13.973 60.165 14.515V15.169C62.995 15.386 63.215 16.853 63.215 20.717V30.512C63.215 36.437 63.052 39.375 59.731 40.464V41.118C62.16 40.9727 64.5927 40.8994 67.026 40.898C69.472 40.898 71.976 40.955 74.537 41.118V40.464C71.217 39.54 71.054 36.492 71.054 30.074ZM54.234 29.889V7.18C54.234 3.979 55.458 2.34799 58.314 1.87199V0.920998C55.184 1.056 52.054 1.195 48.925 1.195C46.886 1.195 44.844 1.125 42.801 1.056L32.12 28.256C26.809 19.078 22.115 10.032 17.76 1.125C15.584 1.125 13.405 1.195 11.227 1.195C8.167 1.195 5.104 1.125 2.177 1.056V1.938C6.462 3.303 6.803 6.08999 6.803 11.803V25.198C6.803 36.35 5.307 42.404 0 44.644V45.462C3.063 45.326 5.918 45.258 8.506 45.258C10.614 45.258 13.272 45.326 16.536 45.462V44.575C10.478 42.404 9.322 36.62 9.322 25.198V8.197C15.514 21.119 21.433 33.904 27.013 46.553H27.559L42.801 7.584V29.889C42.801 39.272 42.801 43.628 38.037 44.576V45.463C42.186 45.259 45.591 45.259 48.447 45.259C51.305 45.259 54.911 45.259 59.133 45.463V44.576C54.64 43.628 54.234 39.544 54.234 29.889ZM199.224 28.007V19.359C199.224 18.759 199.224 16.472 199.334 12.613C196.121 13.374 192.424 14.028 188.291 14.569V15.223C191.118 15.443 191.337 16.853 191.337 20.717V27.845C191.337 34.589 188.505 38.559 184.535 38.559C180.448 38.559 178.813 35.132 178.813 27.845V12.613C176.368 13.319 172.773 13.973 167.983 14.569V15.223C170.815 15.443 171.035 16.853 171.035 20.717V28.389C171.035 37.309 174.625 41.715 181.917 41.715C186.603 41.715 189.815 39.81 191.609 36.003C191.879 37.635 192.314 39.264 192.803 40.955H195.629C198.192 40.955 200.585 41.007 202.819 41.059V40.135C199.606 39.43 199.224 35.731 199.224 28.007ZM232.905 11.035C235.405 11.035 237.435 9.448 237.435 7.489C237.435 5.535 235.405 3.946 232.905 3.946C230.404 3.946 228.373 5.536 228.373 7.489C228.373 9.448 230.403 11.035 232.905 11.035ZM66.391 11.035C68.896 11.035 70.923 9.448 70.923 7.489C70.923 5.535 68.896 3.946 66.391 3.946C63.889 3.946 61.86 5.536 61.86 7.489C61.86 9.448 63.89 11.035 66.391 11.035ZM93.698 23.273C88.472 22.076 85.534 21.965 85.534 18.213C85.534 15.658 87.876 13.481 90.923 13.481C94.679 13.481 97.836 16.308 99.36 21.641L100.067 21.695L102.573 14.301C99.196 12.72 95.497 11.905 91.576 11.905C83.138 11.905 78.129 15.933 78.129 20.988C78.129 26.212 81.449 27.792 88.364 29.531C93.157 30.727 95.552 31.487 95.552 34.642C95.552 37.744 92.882 39.972 89.128 39.972C84.336 39.972 81.12 36.546 79.981 29.855L79.218 29.748L76.173 38.724C79.872 40.624 84.28 41.714 88.907 41.714C98.38 41.714 103.822 37.799 103.822 31.762C103.822 26.647 100.503 24.792 93.698 23.273ZM151.06 39.972C146.274 39.972 143.66 35.46 143.66 26.647C143.66 17.996 146.327 13.536 151.06 13.536C155.962 13.536 158.575 17.996 158.575 26.699C158.575 35.513 155.962 39.972 151.06 39.972ZM151.17 11.905C141.317 11.905 134.787 17.942 134.787 26.807C134.787 35.35 141.373 41.605 150.953 41.605C160.973 41.605 167.397 35.46 167.397 26.754C167.397 17.996 160.917 11.905 151.17 11.905ZM122.975 23.273C117.747 22.076 114.811 21.965 114.811 18.213C114.811 15.658 117.148 13.481 120.199 13.481C123.954 13.481 127.112 16.308 128.636 21.641L129.344 21.695L131.848 14.301C128.472 12.72 124.772 11.905 120.85 11.905C112.415 11.905 107.405 15.933 107.405 20.988C107.405 26.212 110.727 27.792 117.635 29.531C122.429 30.727 124.825 31.487 124.825 34.642C124.825 37.744 122.158 39.972 118.403 39.972C113.611 39.972 110.398 36.546 109.259 29.855L108.492 29.748L105.447 38.724C109.147 40.624 113.557 41.714 118.183 41.714C127.655 41.714 133.099 37.799 133.099 31.762C133.099 26.647 129.779 24.792 122.975 23.273Z" fill="#5E0009"/>
</svg>
