<?xml version="1.0" encoding="utf-8"?>
<!-- Generator: Adobe Illustrator 18.1.0, SVG Export Plug-In . SVG Version: 6.00 Build 0)  -->
<!DOCTYPE svg PUBLIC "-//W3C//DTD SVG 1.0//EN" "http://www.w3.org/TR/2001/REC-SVG-20010904/DTD/svg10.dtd">
<svg version="1.0" id="Layer_1" xmlns="http://www.w3.org/2000/svg" xmlns:xlink="http://www.w3.org/1999/xlink" x="0px" y="0px"
	 width="50px" height="56px" viewBox="0 0 50 56" enable-background="new 0 0 50 56" xml:space="preserve">
<g>
	<path d="M49,42.8V1H28.2L25,8.2L21.8,1H1v41.8C1,45.6,2.6,55,25,55S49,45.6,49,42.8z"/>
	<path fill="#F1B82D" d="M32,39v-4c0-0.8-1-1.7-2-2.2V30l0,0h13v2.8c-1,0.5-2,0.8-2,1.6V38c-0.1,2.6,1,9.9-16,9.9
		C8.1,47.9,9,40.6,9,38v-3.6c0-0.8-1-1.1-2-1.6V30h13l0,0v2.8c-1,0.5-2,1.4-2,2.2v4c0,0.6-0.2,2.9,7,2.9S32,39.6,32,39z"/>
	<path fill="#F1B82D" d="M25,18.1L30.9,7H43v3.1c-1,0.5-2,1.1-2,1.9v8.6c0,0.8,1,1.5,2,2.1V26H32v-3.3c1-0.5,2-1.3,2-2.1V14l-7.6,12
		h-2.8L16,14v6.5c0,0.8,1,1.6,2,2.1V26H7v-3.3c1-0.5,2-0.9,2-1.7v-8.6c0-0.8-1-1.8-2-2.3V7h12.1L25,18.1"/>
</g>
<g>
</g>
<g>
</g>
<g>
</g>
<g>
</g>
<g>
</g>
<g>
</g>
<g>
</g>
<g>
</g>
<g>
</g>
<g>
</g>
<g>
</g>
<g>
</g>
<g>
</g>
<g>
</g>
<g>
</g>
</svg>
