<?xml version="1.0" encoding="utf-8"?>
<!-- Generator: Adobe Illustrator 25.4.1, SVG Export Plug-In . SVG Version: 6.00 Build 0)  -->
<svg version="1.1" id="Layer_2_00000077323985072837833550000003441549804810152848_"
	 xmlns="http://www.w3.org/2000/svg" xmlns:xlink="http://www.w3.org/1999/xlink" x="0px" y="0px" viewBox="0 0 379.9 37.1"
	 width="379.9px" height="37.1px" style="enable-background:new 0 0 379.9 37.1;" xml:space="preserve">
<style type="text/css">
	.st0{fill:#2774AE;}
	.st1{fill:#FFFFFF;}
</style>
<g>
	<g>
		<rect y="0.6" class="st0" width="76.3" height="35.8"/>
		<g>
			<g>
				<path class="st1" d="M12.2,22c-0.1-0.6,0-1.4,0-1.8l0.9-9.8h3.2l-0.9,9.9c-0.2,2.1,0.6,3.6,2.8,3.6c2.2,0,3.3-1.5,3.5-3.4
					l0.9-10.1h3.2l-0.9,9.9c-0.4,3.8-2.9,6.7-7,6.7C14.7,27,12.6,25,12.2,22"/>
			</g>
			<g>
				<path class="st1" d="M26.5,18.7c0.4-4.7,3.6-8.6,9-8.6c1.4,0,2.8,0.3,4.2,1.2l-0.4,3.9c-1.3-1.7-2.8-1.9-4.1-1.9
					c-3.4,0-5.3,2.4-5.5,5.4c-0.3,2.9,1.2,5.3,4.5,5.3c1.4,0,3-0.4,4.6-2l-0.3,4c-1.5,0.8-3,1.2-4.5,1.2
					C28.6,27.1,26.1,23,26.5,18.7"/>
			</g>
			<g>
				<path class="st1" d="M42.3,10.4h3.2l-1.2,13.3h4.6c0.3,0,1.4,0,1.7,0c0,0.2-0.3,3.1-0.3,3.1h-9.5L42.3,10.4z"/>
			</g>
			<g>
				<path class="st1" d="M58.9,16.5c0.1-0.2,0.2-0.5,0.2-0.7h0c0,0.2,0,0.5,0.1,0.7c0.2,0.7,1.4,4.9,1.4,4.9h-4
					C56.7,21.4,58.8,16.6,58.9,16.5 M59.7,9.7h-0.2l-8.7,17h3.4l1.2-2.6h6.2l0.8,2.6h3.4L59.7,9.7z"/>
			</g>
		</g>
	</g>
	<g>
		<path d="M91.9,12.1c0.9,0,1.7,0.1,2.4,0.4s1.4,0.7,1.9,1.2s1,1.2,1.3,2.1c0.3,0.8,0.5,1.8,0.5,2.9c0,1-0.1,1.9-0.4,2.7
			c-0.2,0.8-0.6,1.5-1.2,2.2c-0.5,0.6-1.2,1.1-1.9,1.4s-1.7,0.5-2.7,0.5h-5.8V12.1H91.9z M91.7,23.1c0.4,0,0.8-0.1,1.2-0.2
			c0.4-0.1,0.8-0.4,1.1-0.7c0.3-0.3,0.6-0.7,0.8-1.3s0.3-1.1,0.3-1.9c0-0.7-0.1-1.3-0.2-1.9s-0.3-1-0.7-1.4s-0.7-0.7-1.2-0.9
			s-1.1-0.3-1.8-0.3h-2.1v8.5C89.1,23.1,91.7,23.1,91.7,23.1z"/>
		<path d="M99.8,18.9c0-0.6,0.2-1.1,0.5-1.6c0.3-0.4,0.6-0.8,1.1-1s0.9-0.4,1.4-0.5c0.5-0.1,1.1-0.2,1.6-0.2c0.5,0,1,0,1.5,0.1
			c0.5,0.1,1,0.2,1.4,0.4s0.8,0.5,1,0.8c0.3,0.4,0.4,0.8,0.4,1.4v5.1c0,0.4,0,0.9,0.1,1.3s0.1,0.7,0.3,0.9h-2.7
			c-0.1-0.1-0.1-0.3-0.1-0.5c0-0.2-0.1-0.3-0.1-0.5c-0.4,0.4-0.9,0.8-1.5,0.9s-1.2,0.3-1.8,0.3c-0.5,0-0.9-0.1-1.3-0.2
			s-0.8-0.3-1.1-0.5s-0.5-0.5-0.7-0.9c-0.2-0.4-0.3-0.8-0.3-1.3c0-0.5,0.1-1,0.3-1.4c0.2-0.4,0.4-0.6,0.8-0.9
			c0.3-0.2,0.7-0.4,1.1-0.5c0.4-0.1,0.8-0.2,1.2-0.3s0.8-0.1,1.2-0.1c0.4,0,0.7-0.1,1-0.2s0.5-0.2,0.7-0.3s0.3-0.4,0.2-0.6
			c0-0.3-0.1-0.5-0.1-0.7s-0.2-0.3-0.4-0.4s-0.3-0.2-0.6-0.2c-0.2,0-0.4,0-0.7,0c-0.5,0-0.9,0.1-1.2,0.3s-0.5,0.6-0.5,1.1L99.8,18.9
			L99.8,18.9z M106,20.8c-0.1,0.1-0.3,0.2-0.4,0.2s-0.3,0.1-0.6,0.1c-0.2,0-0.4,0.1-0.6,0.1c-0.2,0-0.4,0.1-0.6,0.1
			c-0.2,0-0.4,0.1-0.6,0.1s-0.4,0.1-0.5,0.3c-0.2,0.1-0.3,0.2-0.3,0.4c-0.1,0.2-0.1,0.4-0.1,0.6c0,0.2,0,0.4,0.1,0.6
			c0.1,0.2,0.2,0.3,0.4,0.4c0.2,0.1,0.3,0.2,0.5,0.2s0.4,0.1,0.6,0.1c0.5,0,0.9-0.1,1.2-0.3s0.5-0.4,0.6-0.6
			c0.1-0.2,0.2-0.5,0.3-0.8c0-0.2,0.1-0.5,0.1-0.6C106,21.8,106,20.8,106,20.8z"/>
		<path d="M113.2,25.6l-3.3-9.8h2.8l2.1,6.7h0l2.1-6.7h2.7l-3.3,9.8C116.1,25.6,113.2,25.6,113.2,25.6z"/>
		<path d="M120.6,14.3v-2.2h2.7v2.2H120.6z M123.3,15.9v9.8h-2.7v-9.8C120.6,15.9,123.3,15.9,123.3,15.9z"/>
		<path d="M132.4,24.4c-0.3,0.5-0.7,0.9-1.2,1.1c-0.5,0.2-1.1,0.4-1.7,0.4c-0.7,0-1.4-0.1-1.9-0.4c-0.6-0.3-1-0.7-1.4-1.1
			c-0.4-0.5-0.6-1-0.8-1.7s-0.3-1.3-0.3-2c0-0.7,0.1-1.3,0.3-1.9c0.2-0.6,0.4-1.1,0.8-1.6c0.4-0.5,0.8-0.8,1.3-1.1
			c0.5-0.3,1.2-0.4,1.9-0.4c0.6,0,1.1,0.1,1.7,0.4c0.5,0.3,0.9,0.6,1.2,1.1h0v-4.9h2.7v13.5h-2.6L132.4,24.4L132.4,24.4z
			 M132.3,19.5c-0.1-0.4-0.2-0.7-0.4-1c-0.2-0.3-0.4-0.5-0.7-0.7c-0.3-0.2-0.7-0.3-1.1-0.3s-0.8,0.1-1.1,0.3
			c-0.3,0.2-0.6,0.4-0.7,0.7s-0.3,0.6-0.4,1s-0.1,0.8-0.1,1.2c0,0.4,0,0.8,0.1,1.1c0.1,0.4,0.2,0.7,0.4,1c0.2,0.3,0.4,0.5,0.7,0.7
			c0.3,0.2,0.6,0.3,1.1,0.3c0.4,0,0.8-0.1,1.1-0.3s0.5-0.4,0.7-0.7s0.3-0.6,0.4-1s0.1-0.8,0.1-1.2S132.4,19.9,132.3,19.5z"/>
		<path d="M150.6,25.5c-0.6,0.3-1.3,0.4-1.9,0.4c-1,0-2-0.2-2.8-0.5c-0.8-0.4-1.5-0.9-2.1-1.5c-0.6-0.6-1-1.4-1.3-2.2
			s-0.4-1.8-0.4-2.8c0-1,0.1-2,0.4-2.8c0.3-0.9,0.7-1.6,1.3-2.3s1.3-1.1,2.1-1.5c0.8-0.4,1.8-0.6,2.8-0.6c0.7,0,1.4,0.1,2,0.3
			s1.2,0.5,1.8,0.9c0.5,0.4,1,0.9,1.3,1.5s0.6,1.3,0.6,2h-2.8c-0.2-0.8-0.5-1.3-1-1.7s-1.1-0.6-1.8-0.6c-0.7,0-1.2,0.1-1.7,0.4
			c-0.5,0.3-0.9,0.6-1.1,1c-0.3,0.4-0.5,0.9-0.6,1.5c-0.1,0.6-0.2,1.1-0.2,1.7c0,0.6,0.1,1.1,0.2,1.7c0.1,0.5,0.3,1,0.6,1.5
			c0.3,0.4,0.7,0.8,1.1,1s1,0.4,1.7,0.4c1,0,1.7-0.2,2.3-0.8s0.9-1.2,0.9-2.2h-3v-2.2h5.7v7.3h-1.9l-0.3-1.5
			C151.8,24.8,151.2,25.2,150.6,25.5z"/>
		<path d="M159.5,23.3c0.4,0.4,1,0.6,1.7,0.6c0.5,0,1-0.1,1.4-0.4s0.6-0.6,0.7-0.9h2.4c-0.4,1.2-1,2-1.7,2.5
			c-0.8,0.5-1.7,0.8-2.8,0.8c-0.8,0-1.5-0.1-2.1-0.4s-1.1-0.6-1.6-1c-0.4-0.5-0.8-1-1-1.6c-0.2-0.6-0.4-1.3-0.4-2.1
			c0-0.7,0.1-1.4,0.4-2s0.6-1.2,1-1.6s1-0.8,1.6-1.1s1.3-0.4,2-0.4c0.8,0,1.6,0.2,2.2,0.5s1.1,0.8,1.5,1.3s0.7,1.2,0.9,1.9
			c0.2,0.7,0.2,1.4,0.2,2.2h-7.1C158.9,22.3,159.1,22.9,159.5,23.3z M162.6,18.1c-0.3-0.4-0.8-0.5-1.5-0.5c-0.4,0-0.8,0.1-1.1,0.2
			c-0.3,0.1-0.5,0.3-0.7,0.5c-0.2,0.2-0.3,0.4-0.4,0.7s-0.1,0.5-0.1,0.6h4.4C163.1,19,162.9,18.5,162.6,18.1z"/>
		<path d="M166.5,17.6v-1.8h1.6v-0.8c0-0.9,0.3-1.6,0.8-2.1s1.4-0.8,2.5-0.8c0.2,0,0.5,0,0.7,0c0.2,0,0.5,0,0.7,0.1v2
			c-0.3,0-0.6-0.1-1-0.1c-0.4,0-0.6,0.1-0.8,0.3c-0.2,0.2-0.2,0.5-0.2,0.9v0.6h1.9v1.8h-1.9v8h-2.7v-8L166.5,17.6L166.5,17.6z"/>
		<path d="M172.4,17.6v-1.8h1.6v-0.8c0-0.9,0.3-1.6,0.8-2.1s1.4-0.8,2.5-0.8c0.2,0,0.5,0,0.7,0c0.2,0,0.5,0,0.7,0.1v2
			c-0.3,0-0.6-0.1-1-0.1c-0.4,0-0.6,0.1-0.8,0.3c-0.2,0.2-0.2,0.5-0.2,0.9v0.6h1.9v1.8h-1.9v8H174v-8L172.4,17.6L172.4,17.6z"/>
		<path d="M182.6,23.3c0.4,0.4,1,0.6,1.7,0.6c0.5,0,1-0.1,1.4-0.4s0.6-0.6,0.7-0.9h2.4c-0.4,1.2-1,2-1.7,2.5
			c-0.8,0.5-1.7,0.8-2.8,0.8c-0.8,0-1.5-0.1-2.1-0.4s-1.1-0.6-1.6-1c-0.4-0.5-0.8-1-1-1.6c-0.2-0.6-0.4-1.3-0.4-2.1
			c0-0.7,0.1-1.4,0.4-2s0.6-1.2,1-1.6s1-0.8,1.6-1.1s1.3-0.4,2-0.4c0.8,0,1.6,0.2,2.2,0.5s1.1,0.8,1.5,1.3s0.7,1.2,0.9,1.9
			c0.2,0.7,0.2,1.4,0.2,2.2H182C182,22.3,182.2,22.9,182.6,23.3z M185.7,18.1c-0.3-0.4-0.8-0.5-1.5-0.5c-0.4,0-0.8,0.1-1.1,0.2
			c-0.3,0.1-0.5,0.3-0.7,0.5c-0.2,0.2-0.3,0.4-0.4,0.7s-0.1,0.5-0.1,0.6h4.4C186.2,19,186,18.5,185.7,18.1z"/>
		<path d="M193.2,15.9v1.4h0.1c0.3-0.6,0.8-1,1.3-1.2c0.5-0.3,1.1-0.4,1.7-0.4c0.7,0,1.3,0.1,1.8,0.3c0.5,0.2,0.8,0.5,1.1,0.8
			c0.3,0.4,0.4,0.8,0.6,1.3s0.2,1,0.2,1.7v6h-2.7v-5.5c0-0.8-0.1-1.4-0.4-1.8s-0.7-0.6-1.3-0.6c-0.7,0-1.3,0.2-1.6,0.6
			c-0.3,0.4-0.5,1.1-0.5,2.1v5.1h-2.7v-9.8L193.2,15.9L193.2,15.9z"/>
		<path d="M209.7,22.3c0.2,0.3,0.4,0.6,0.6,0.8c0.3,0.2,0.6,0.3,1,0.4c0.4,0.1,0.7,0.1,1.1,0.1c0.3,0,0.6,0,0.9-0.1
			c0.3,0,0.6-0.1,0.9-0.3s0.5-0.3,0.7-0.5s0.3-0.5,0.3-0.8c0-0.4-0.1-0.7-0.4-0.9s-0.5-0.4-0.9-0.6s-0.8-0.3-1.3-0.4
			c-0.5-0.1-1-0.2-1.5-0.4c-0.5-0.1-1-0.3-1.5-0.5s-0.9-0.4-1.3-0.7c-0.4-0.3-0.7-0.6-0.9-1.1c-0.2-0.4-0.4-1-0.4-1.6
			c0-0.7,0.1-1.3,0.4-1.8c0.3-0.5,0.7-0.9,1.2-1.3c0.5-0.3,1-0.6,1.6-0.8c0.6-0.2,1.2-0.2,1.8-0.2c0.7,0,1.4,0.1,2,0.2
			s1.2,0.4,1.7,0.8s0.9,0.8,1.2,1.4c0.3,0.6,0.4,1.2,0.4,2h-2.9c0-0.4-0.1-0.7-0.3-1s-0.3-0.5-0.6-0.6s-0.5-0.3-0.8-0.3
			c-0.3-0.1-0.6-0.1-1-0.1c-0.2,0-0.5,0-0.7,0.1s-0.5,0.1-0.6,0.3c-0.2,0.1-0.4,0.3-0.5,0.5c-0.1,0.2-0.2,0.4-0.2,0.7
			c0,0.3,0.1,0.5,0.1,0.6c0.1,0.2,0.3,0.3,0.6,0.5c0.3,0.1,0.7,0.3,1.2,0.4c0.5,0.1,1.2,0.3,2.1,0.5c0.2,0,0.6,0.1,1.1,0.3
			c0.4,0.1,0.9,0.3,1.3,0.6c0.4,0.3,0.8,0.7,1.1,1.2c0.3,0.5,0.5,1.1,0.5,1.9c0,0.6-0.1,1.2-0.4,1.7c-0.2,0.5-0.6,1-1.1,1.4
			c-0.5,0.4-1.1,0.7-1.8,0.9s-1.5,0.3-2.4,0.3c-0.7,0-1.5-0.1-2.2-0.3s-1.3-0.5-1.9-0.9s-1-0.9-1.3-1.5s-0.5-1.3-0.4-2.2h2.9
			C209.4,21.6,209.5,22,209.7,22.3z"/>
		<path d="M224.1,17.6c-0.4,0-0.8,0.1-1.1,0.3c-0.3,0.2-0.5,0.5-0.7,0.8c-0.2,0.3-0.3,0.6-0.4,1s-0.1,0.7-0.1,1.1
			c0,0.4,0,0.7,0.1,1.1c0.1,0.4,0.2,0.7,0.4,1c0.2,0.3,0.4,0.5,0.7,0.7c0.3,0.2,0.6,0.3,1.1,0.3c0.6,0,1.1-0.2,1.5-0.5
			s0.6-0.8,0.6-1.5h2.6c-0.2,1.3-0.7,2.3-1.5,3c-0.8,0.7-1.9,1-3.2,1c-0.7,0-1.4-0.1-2-0.4s-1.1-0.6-1.6-1s-0.8-1-1-1.6
			s-0.4-1.3-0.4-2c0-0.8,0.1-1.5,0.3-2.1c0.2-0.6,0.6-1.2,1-1.7s0.9-0.8,1.6-1.1c0.6-0.3,1.3-0.4,2.1-0.4c0.6,0,1.1,0.1,1.7,0.2
			s1,0.4,1.4,0.7s0.8,0.7,1,1.1s0.4,1,0.4,1.6H226C225.9,18.2,225.2,17.6,224.1,17.6z"/>
		<path d="M232.9,12.1v5.1h0.1c0.3-0.6,0.8-1,1.3-1.2s1.1-0.4,1.6-0.4c0.7,0,1.3,0.1,1.8,0.3c0.5,0.2,0.8,0.5,1.1,0.8
			c0.3,0.4,0.4,0.8,0.6,1.3s0.2,1,0.2,1.7v6h-2.7v-5.5c0-0.8-0.1-1.4-0.4-1.8s-0.7-0.6-1.3-0.6c-0.7,0-1.3,0.2-1.6,0.6
			c-0.3,0.4-0.5,1.1-0.5,2.1v5.1h-2.7V12.1H232.9z"/>
		<path d="M241.5,18.6c0.2-0.6,0.6-1.2,1-1.6s1-0.8,1.6-1c0.6-0.2,1.3-0.4,2.1-0.4s1.5,0.1,2.1,0.4c0.6,0.2,1.2,0.6,1.6,1
			s0.8,1,1,1.6s0.4,1.4,0.4,2.1s-0.1,1.5-0.4,2.1s-0.6,1.2-1,1.6s-1,0.8-1.6,1c-0.6,0.2-1.3,0.4-2.1,0.4s-1.5-0.1-2.1-0.4
			s-1.1-0.6-1.6-1s-0.8-1-1-1.6c-0.2-0.6-0.4-1.3-0.4-2.1S241.3,19.3,241.5,18.6z M244,21.9c0.1,0.4,0.2,0.7,0.4,1
			c0.2,0.3,0.4,0.5,0.7,0.7c0.3,0.2,0.7,0.3,1.1,0.3s0.8-0.1,1.1-0.3s0.6-0.4,0.7-0.7s0.3-0.6,0.4-1s0.1-0.8,0.1-1.1
			c0-0.4,0-0.8-0.1-1.1c-0.1-0.4-0.2-0.7-0.4-1s-0.4-0.5-0.7-0.7c-0.3-0.2-0.7-0.3-1.1-0.3s-0.8,0.1-1.1,0.3s-0.6,0.4-0.7,0.7
			c-0.2,0.3-0.3,0.6-0.4,1s-0.1,0.8-0.1,1.1C243.9,21.1,243.9,21.5,244,21.9z"/>
		<path d="M253.1,18.6c0.2-0.6,0.6-1.2,1-1.6s1-0.8,1.6-1c0.6-0.2,1.3-0.4,2.1-0.4s1.5,0.1,2.1,0.4c0.6,0.2,1.2,0.6,1.6,1
			s0.8,1,1,1.6s0.4,1.4,0.4,2.1s-0.1,1.5-0.4,2.1s-0.6,1.2-1,1.6s-1,0.8-1.6,1c-0.6,0.2-1.3,0.4-2.1,0.4s-1.5-0.1-2.1-0.4
			c-0.6-0.2-1.1-0.6-1.6-1s-0.8-1-1-1.6c-0.2-0.6-0.4-1.3-0.4-2.1S252.8,19.3,253.1,18.6z M255.5,21.9c0.1,0.4,0.2,0.7,0.4,1
			c0.2,0.3,0.4,0.5,0.7,0.7c0.3,0.2,0.7,0.3,1.1,0.3s0.8-0.1,1.1-0.3s0.5-0.4,0.7-0.7s0.3-0.6,0.4-1c0.1-0.4,0.1-0.8,0.1-1.1
			c0-0.4,0-0.8-0.1-1.1c-0.1-0.4-0.2-0.7-0.4-1c-0.2-0.3-0.4-0.5-0.7-0.7c-0.3-0.2-0.7-0.3-1.1-0.3s-0.8,0.1-1.1,0.3
			c-0.3,0.2-0.5,0.4-0.7,0.7c-0.2,0.3-0.3,0.6-0.4,1c-0.1,0.4-0.1,0.8-0.1,1.1C255.4,21.1,255.4,21.5,255.5,21.9z"/>
		<path d="M267.4,12.1v13.5h-2.7V12.1H267.4z"/>
		<path d="M274.8,18.6c0.2-0.6,0.6-1.2,1-1.6s1-0.8,1.6-1c0.6-0.2,1.3-0.4,2.1-0.4s1.5,0.1,2.1,0.4c0.6,0.2,1.2,0.6,1.6,1
			s0.8,1,1,1.6s0.4,1.4,0.4,2.1s-0.1,1.5-0.4,2.1s-0.6,1.2-1,1.6s-1,0.8-1.6,1c-0.6,0.2-1.3,0.4-2.1,0.4s-1.5-0.1-2.1-0.4
			s-1.1-0.6-1.6-1s-0.8-1-1-1.6c-0.2-0.6-0.4-1.3-0.4-2.1S274.5,19.3,274.8,18.6z M277.2,21.9c0.1,0.4,0.2,0.7,0.4,1
			c0.2,0.3,0.4,0.5,0.7,0.7c0.3,0.2,0.7,0.3,1.1,0.3s0.8-0.1,1.1-0.3s0.5-0.4,0.7-0.7s0.3-0.6,0.4-1c0.1-0.4,0.1-0.8,0.1-1.1
			c0-0.4,0-0.8-0.1-1.1c-0.1-0.4-0.2-0.7-0.4-1c-0.2-0.3-0.4-0.5-0.7-0.7c-0.3-0.2-0.7-0.3-1.1-0.3s-0.8,0.1-1.1,0.3
			c-0.3,0.2-0.5,0.4-0.7,0.7c-0.2,0.3-0.3,0.6-0.4,1c-0.1,0.4-0.1,0.8-0.1,1.1C277.1,21.1,277.2,21.5,277.2,21.9z"/>
		<path d="M285.3,17.6v-1.8h1.6v-0.8c0-0.9,0.3-1.6,0.8-2.1s1.4-0.8,2.5-0.8c0.2,0,0.5,0,0.7,0c0.2,0,0.5,0,0.7,0.1v2
			c-0.3,0-0.6-0.1-1-0.1c-0.4,0-0.6,0.1-0.8,0.3s-0.2,0.5-0.2,0.9v0.6h1.9v1.8h-1.9v8h-2.7v-8L285.3,17.6L285.3,17.6z"/>
		<path d="M302.3,12.1l3.2,9.3h0l3-9.3h4.2v13.5h-2.8v-9.6h0l-3.3,9.6h-2.3l-3.3-9.5h0v9.5h-2.8V12.1H302.3z"/>
		<path d="M317.9,23.3c0.4,0.4,1,0.6,1.7,0.6c0.5,0,1-0.1,1.4-0.4c0.4-0.3,0.6-0.6,0.7-0.9h2.4c-0.4,1.2-1,2-1.7,2.5
			s-1.7,0.8-2.8,0.8c-0.8,0-1.5-0.1-2.1-0.4s-1.1-0.6-1.6-1c-0.4-0.5-0.8-1-1-1.6c-0.2-0.6-0.4-1.3-0.4-2.1c0-0.7,0.1-1.4,0.4-2
			s0.6-1.2,1-1.6s1-0.8,1.6-1.1s1.3-0.4,2-0.4c0.8,0,1.6,0.2,2.2,0.5s1.1,0.8,1.5,1.3s0.7,1.2,0.9,1.9s0.2,1.4,0.2,2.2h-7.1
			C317.3,22.3,317.5,22.9,317.9,23.3z M320.9,18.1c-0.3-0.4-0.8-0.5-1.5-0.5c-0.4,0-0.8,0.1-1.1,0.2s-0.5,0.3-0.7,0.5
			c-0.2,0.2-0.3,0.4-0.4,0.7c-0.1,0.2-0.1,0.5-0.1,0.6h4.4C321.5,19,321.3,18.5,320.9,18.1z"/>
		<path d="M332.8,24.4c-0.3,0.5-0.7,0.9-1.2,1.1s-1.1,0.4-1.7,0.4c-0.7,0-1.4-0.1-1.9-0.4c-0.5-0.3-1-0.7-1.4-1.1s-0.6-1-0.8-1.7
			s-0.3-1.3-0.3-2c0-0.7,0.1-1.3,0.3-1.9c0.2-0.6,0.5-1.1,0.8-1.6s0.8-0.8,1.4-1.1c0.5-0.3,1.2-0.4,1.9-0.4c0.6,0,1.1,0.1,1.7,0.4
			c0.5,0.3,0.9,0.6,1.2,1.1h0v-4.9h2.7v13.5h-2.5L332.8,24.4L332.8,24.4z M332.7,19.5c-0.1-0.4-0.2-0.7-0.4-1
			c-0.2-0.3-0.4-0.5-0.7-0.7c-0.3-0.2-0.7-0.3-1.1-0.3s-0.8,0.1-1.1,0.3c-0.3,0.2-0.5,0.4-0.7,0.7c-0.2,0.3-0.3,0.6-0.4,1
			s-0.1,0.8-0.1,1.2c0,0.4,0,0.8,0.1,1.1s0.2,0.7,0.4,1c0.2,0.3,0.4,0.5,0.7,0.7c0.3,0.2,0.6,0.3,1.1,0.3c0.4,0,0.8-0.1,1.1-0.3
			s0.5-0.4,0.7-0.7s0.3-0.6,0.4-1c0.1-0.4,0.1-0.8,0.1-1.2S332.8,19.9,332.7,19.5z"/>
		<path d="M337.5,14.3v-2.2h2.7v2.2H337.5z M340.2,15.9v9.8h-2.7v-9.8C337.5,15.9,340.2,15.9,340.2,15.9z"/>
		<path d="M347,17.6c-0.4,0-0.8,0.1-1.1,0.3c-0.3,0.2-0.5,0.5-0.7,0.8s-0.3,0.6-0.4,1c-0.1,0.4-0.1,0.7-0.1,1.1c0,0.4,0,0.7,0.1,1.1
			c0.1,0.4,0.2,0.7,0.4,1c0.2,0.3,0.4,0.5,0.7,0.7c0.3,0.2,0.6,0.3,1.1,0.3c0.6,0,1.1-0.2,1.5-0.5c0.4-0.4,0.6-0.8,0.6-1.5h2.6
			c-0.2,1.3-0.7,2.3-1.5,3c-0.8,0.7-1.9,1-3.2,1c-0.7,0-1.4-0.1-2-0.4s-1.1-0.6-1.6-1s-0.8-1-1-1.6s-0.4-1.3-0.4-2
			c0-0.8,0.1-1.5,0.3-2.1c0.2-0.6,0.5-1.2,1-1.7s1-0.8,1.6-1.1c0.6-0.3,1.3-0.4,2.1-0.4c0.6,0,1.1,0.1,1.7,0.2s1,0.4,1.4,0.7
			s0.8,0.7,1,1.1s0.4,1,0.5,1.6H349C348.8,18.2,348.1,17.6,347,17.6z"/>
		<path d="M353.3,14.3v-2.2h2.7v2.2H353.3z M355.9,15.9v9.8h-2.7v-9.8C353.3,15.9,355.9,15.9,355.9,15.9z"/>
		<path d="M360.6,15.9v1.4h0.1c0.3-0.6,0.8-1,1.3-1.2s1.1-0.4,1.7-0.4c0.7,0,1.3,0.1,1.8,0.3c0.5,0.2,0.8,0.5,1.1,0.8
			c0.3,0.4,0.5,0.8,0.6,1.3s0.2,1,0.2,1.7v6h-2.7v-5.5c0-0.8-0.1-1.4-0.4-1.8s-0.7-0.6-1.3-0.6c-0.7,0-1.3,0.2-1.6,0.6
			c-0.3,0.4-0.5,1.1-0.5,2.1v5.1h-2.7v-9.8L360.6,15.9L360.6,15.9z"/>
		<path d="M372.2,23.3c0.4,0.4,1,0.6,1.7,0.6c0.5,0,1-0.1,1.4-0.4c0.4-0.3,0.6-0.6,0.7-0.9h2.4c-0.4,1.2-1,2-1.7,2.5
			s-1.7,0.8-2.8,0.8c-0.8,0-1.5-0.1-2.1-0.4s-1.1-0.6-1.6-1c-0.4-0.5-0.8-1-1-1.6c-0.2-0.6-0.4-1.3-0.4-2.1c0-0.7,0.1-1.4,0.4-2
			s0.6-1.2,1-1.6s1-0.8,1.6-1.1s1.3-0.4,2-0.4c0.8,0,1.6,0.2,2.2,0.5s1.1,0.8,1.5,1.3s0.7,1.2,0.9,1.9s0.2,1.4,0.2,2.2h-7.1
			C371.5,22.3,371.8,22.9,372.2,23.3z M375.2,18.1c-0.3-0.4-0.8-0.5-1.5-0.5c-0.4,0-0.8,0.1-1.1,0.2s-0.5,0.3-0.7,0.5
			c-0.2,0.2-0.3,0.4-0.4,0.7c-0.1,0.2-0.1,0.5-0.1,0.6h4.4C375.8,19,375.5,18.5,375.2,18.1z"/>
	</g>
</g>
</svg>
