<svg width="657" height="97" viewBox="0 0 657 97" fill="none" xmlns="http://www.w3.org/2000/svg">
<g clip-path="url(#clip0_237_2)">
<path d="M131.639 59.5679C133.551 64.2853 134.028 66.2666 135.052 66.2666C135.804 66.2666 136.284 65.9239 136.761 64.5613L144.412 45.5613C144.619 45.0879 144.893 45.0879 145.031 45.0879C145.236 45.0879 145.369 45.3586 145.507 45.7026L153.02 63.6679C153.979 65.8546 154.253 66.2666 154.868 66.2666C155.891 66.2666 156.437 64.9693 156.849 64.0119L174.409 22.6106C176.661 17.2093 178.372 19.0573 178.372 17.5519C178.372 16.8053 178.028 16.8053 177.551 16.8053C175.979 16.8053 173.928 17.0759 171.879 17.0759C170.241 17.0759 168.669 16.8053 167.095 16.8053C166.621 16.8053 166.347 17.2773 166.347 17.8266C166.347 19.1933 170.787 18.7133 170.787 21.6519C170.787 22.4719 170.649 23.1573 170.309 23.9093L157.872 54.5159C157.257 56.0213 156.849 57.0439 156.372 57.0439C155.96 57.0439 155.552 56.4946 154.868 54.9253L149.131 40.7813C148.719 39.7586 148.24 38.1866 148.24 37.5026C148.24 36.8879 148.307 36.2733 148.856 34.9066L153.704 23.7026C156.78 16.5293 158.423 19.1253 158.423 17.2093C158.423 17.0066 158.147 16.8053 157.941 16.8053C156.78 16.8053 155.96 17.0759 152.956 17.0759C151.452 17.0759 150.016 16.8053 148.512 16.8053C148.104 16.8053 147.145 16.8053 147.145 17.4146C147.145 18.9186 151.176 18.5106 151.108 21.4466C151.108 22.1306 150.768 23.2213 150.497 23.9093L147.145 31.8986C146.736 32.8573 146.396 33.6079 146.191 33.6079C146.053 33.6079 145.847 33.1306 145.305 31.8333L141.748 22.8133C141.408 21.9959 141.271 21.5866 141.271 20.7666C141.271 18.5106 144.072 18.7133 144.072 17.6173C144.072 17.2093 143.939 16.8053 143.664 16.8053C142.16 16.8053 140.312 17.0759 137.036 17.0759C136.079 17.0759 132.456 16.8053 130.134 16.8053C129.52 16.8053 129.111 16.8693 129.111 17.5519C129.111 19.8773 133.892 17.4146 135.739 21.9266L142.572 38.3919C142.912 39.2773 143.252 40.0986 143.252 40.5106C143.252 40.9199 142.98 41.9426 142.435 43.3093L137.376 55.3373C137.105 56.0853 136.761 56.5666 136.423 56.5666C136.009 56.5666 135.532 55.5399 135.257 54.7879L122.278 22.6759C122.004 22.0613 121.866 21.3773 121.866 20.9693C121.866 18.6439 124.806 18.6439 124.806 17.6173C124.806 17.1439 124.668 16.8053 124.256 16.8053C122.621 16.8053 120.98 17.0759 119.339 17.0759C117.361 17.0759 115.308 16.8053 113.326 16.8053C112.644 16.8053 111.754 17.0759 111.754 17.8959C111.754 19.2626 115.037 18.3733 116.675 22.4039L131.639 59.5679Z" fill="#0F2B53"/>
<path fill-rule="evenodd" clip-rule="evenodd" d="M190.095 47.6146C191.66 47.6146 192.417 47.6826 192.417 46.4546C192.417 43.7186 188.728 35.5906 180.323 35.5906C171.783 35.5906 166.931 42.9013 166.931 51.6466C166.931 56.1546 170.484 65.6493 180.735 65.6493C186.881 65.6493 192.828 60.732 192.828 59.164C192.828 58.9573 192.828 58.6826 192.555 58.6826C191.049 58.6826 188.795 62.236 182.919 62.236C178.749 62.236 171.917 58.888 171.917 47.6146H190.095ZM171.917 45.768C171.917 42.012 174.924 37.1586 179.163 37.1586C182.919 37.1586 186.744 40.5786 186.744 44.4013C186.744 45.428 186.336 45.768 185.377 45.768H171.917Z" fill="#0F2B53"/>
<path d="M203.957 52.2613C206.691 53.556 210.175 54.6546 210.175 58.2733C210.175 61.824 207.441 63.8773 204.091 63.8773C196.715 63.8773 197.471 54.8573 195.967 54.8573C194.941 54.8573 195.143 57.044 195.143 58.2013C195.143 63.6026 195.143 63.668 196.647 63.668C198.287 63.668 199.517 65.6493 204.3 65.6493C209.355 65.6493 213.523 61.412 213.523 56.2933C213.523 51.9213 211.749 49.7986 207.852 48.16C200.679 45.2946 198.903 43.8586 198.903 41.6026C198.903 38.804 201.021 37.228 203.687 37.228C209.901 37.228 210.519 43.172 211.199 43.172C212.225 43.172 211.951 42.352 211.951 40.5106C211.951 40.0333 212.02 37.7053 211.612 37.1586C210.789 36.136 206.076 35.5906 204.915 35.5906C199.925 35.5906 195.692 38.324 195.692 43.7906C195.692 48.6386 200.268 50.416 203.957 52.2613Z" fill="#0F2B53"/>
<path fill-rule="evenodd" clip-rule="evenodd" d="M218.152 57.728C218.152 64.7666 222.661 65.6493 225.805 65.6493C230.587 65.6493 234.277 63.328 234.277 62.3013C234.277 61.756 234.003 61.6906 233.731 61.6906C232.571 61.6906 231.544 63.2586 227.921 63.2586C225.188 63.2586 223.279 61.9613 223.139 59.164V39.2773H232.021L232.955 36.7813C233.159 36.4413 232.365 36.48 230.653 36.48H223.139C223.139 31.5586 223.207 30.124 222.252 30.124C221.707 30.124 221.143 29.736 220.876 31.8506C220.307 36.3933 216.611 38.1693 216.568 38.7013C216.931 38.3373 215.305 39.4293 218.152 39.2773V57.728Z" fill="#0F2B53"/>
<path d="M252.308 61.9613C252.92 63.3959 253.743 66.2666 254.835 66.2666C255.859 66.2666 256.339 64.0119 257.091 62.3013L274.101 22.0613C276.015 17.4866 277.928 19.1933 277.928 17.6906C277.928 17.0759 277.519 16.8053 276.767 16.8053C275.808 16.8053 274.785 17.0759 271.509 17.0759C270.005 17.0759 268.501 16.8053 266.997 16.8053C266.311 16.8053 265.971 17.0066 265.971 17.6906C265.971 19.2626 270.341 17.9613 270.341 21.1066C270.617 22.5426 269.796 24.7253 269.387 25.7519L257.5 55.0626C257.156 55.8826 256.953 56.9719 256.271 56.9719C255.515 56.9719 255.041 55.4039 253.537 51.7839L241.581 23.6333C241.307 23.0186 240.965 21.9266 240.965 20.9693C240.965 18.5106 243.833 18.4426 243.764 17.4866C243.764 17.0759 243.221 16.8053 242.811 16.8053C241.856 16.8053 239.259 17.0759 237.412 17.0759C235.363 17.0759 233.244 16.8053 231.129 16.8053C230.511 16.8053 230.171 17.1439 230.171 17.7559C230.171 19.2626 233.725 17.9613 235.435 22.0613L252.308 61.9613Z" fill="#0F2B53"/>
<path d="M330.739 25.68C329.917 25.68 327.872 28.5506 327.872 29.3026C327.872 30.052 329.917 32.8573 330.739 32.8573C331.631 32.8573 333.613 30.124 333.613 29.3026C333.613 28.4786 331.631 25.68 330.739 25.68Z" fill="#0F2B53"/>
<path d="M377.519 25.3133C376.703 25.3133 374.649 28.1827 374.649 28.932C374.649 29.684 376.703 32.4854 377.519 32.4854C378.405 32.4854 380.387 29.7533 380.387 28.932C380.387 28.1147 378.405 25.3133 377.519 25.3133Z" fill="#0F2B53"/>
<path fill-rule="evenodd" clip-rule="evenodd" d="M402.656 58.136C402.656 61.756 398.008 63.668 395.551 63.668C391.928 63.668 389.947 62.168 389.947 58.2733C389.947 52.2613 398.284 51.1653 402.656 50.2106V58.136ZM402.656 48.5733C386.668 51.2373 385.507 55.54 385.507 59.164C385.507 64.012 388.443 65.6493 392.887 65.6493C396.715 65.6493 400.468 64.1493 403.339 61.6906C404.228 63.9426 406 65.176 408.668 65.176C409.624 65.176 412.629 64.9013 412.629 63.4653C412.629 62.9853 412.084 62.9853 411.744 62.9853C411.465 62.9853 410.855 63.1226 410.579 63.1226C407.025 63.1226 407.644 59.0946 407.644 56.7693V42.6253C407.644 36.8186 401.081 35.5906 396.848 35.5906C389.267 35.388 385.443 40.1706 385.367 43.3093C385.367 44.5386 387.42 45.5613 388.58 45.5613C389.883 45.5613 390.084 45.0186 390.084 44.2706C390.084 43.5146 389.675 42.488 389.675 41.4653C389.675 37.7053 392.336 37.3653 395.616 37.3653C399.852 37.3653 402.656 39.7586 402.656 43.3093V48.5733Z" fill="#0F2B53"/>
<path fill-rule="evenodd" clip-rule="evenodd" d="M282.691 63.6052C282.109 63.6639 277.632 63.5786 277.632 60.6666V36.1359C277.632 35.4559 277.224 35.0439 276.815 35.0439C275.241 35.0439 273.875 37.2279 269.5 38.4612C269.161 38.5266 268.887 38.8039 268.887 39.2132C268.887 40.6439 272.647 38.8692 272.647 42.9692V59.0946C272.647 65.3092 269.637 62.7132 269.637 64.4226C269.707 65.1026 270.116 65.1759 270.664 65.1759C271.416 65.1759 273.192 64.9012 275.375 64.9012C278.177 64.9012 280.296 65.1759 281.728 65.1759C282.024 65.1759 282.288 65.1612 282.495 65.1759C282.717 65.1612 282.717 65.1759 282.953 65.1759C283.432 65.1759 284.66 64.9012 289.24 64.9012C293.067 64.9012 294.704 65.1759 295.663 65.1759C296.413 65.1759 296.755 65.0346 296.755 64.4226C296.755 62.2359 290.673 65.5159 290.673 59.1639L290.697 43.9386C290.697 43.0519 296.136 33.4786 304.46 33.8466C306.925 33.9519 306.52 34.0719 308.141 31.5239C308.836 30.4253 305.645 30.4292 304.219 30.5466C295.032 31.2772 292.984 37.5399 290.697 40.8399V40.7026L290.673 36.1359C290.673 35.4559 290.264 35.0439 289.856 35.0439C288.28 35.0439 286.916 37.2279 281.653 38.4612C281.312 38.5266 280.767 38.8039 280.767 39.2132C280.767 40.6439 285.687 38.8692 285.687 42.9692V60.5946C285.687 62.7332 283.413 63.7226 282.691 63.6052Z" fill="#0F2B53"/>
<path d="M372.065 63.5373C371.395 63.5266 366.947 63.7973 366.947 59.64V48.3666C366.947 43.172 364.963 35.5906 355.808 35.5906C349.181 35.5906 345.765 41.4653 345.901 40.644V36.136C345.901 35.456 345.493 35.044 345.085 35.044C343.512 35.044 342.145 37.228 336.469 38.4613C336.132 38.5266 335.859 38.804 335.859 39.2133C335.859 40.644 340.912 38.8693 340.912 42.9693V59.912C340.912 63.0626 338.592 63.4853 337.561 63.456C337.109 63.3653 332.927 63.352 332.927 60.6666V36.136C332.927 35.456 332.517 35.044 332.108 35.044C330.535 35.044 329.169 37.228 324.797 38.4613C324.457 38.5266 323.607 40.8306 324.011 40.7813C326.251 40.528 327.94 38.8693 327.94 42.9693V59.0946C327.94 65.3093 324.932 62.7133 324.932 64.4226C325.004 65.1026 325.412 65.176 325.955 65.176C326.711 65.176 328.481 64.9013 330.673 64.9013C333.475 64.9013 335.591 65.176 337.025 65.176C337.205 65.176 337.509 65.1933 337.655 65.172C337.768 65.1826 337.98 65.176 338.112 65.176C338.931 65.176 340.299 64.9013 343.921 64.9013C347.884 64.9013 349.249 65.176 350.409 65.176C351.433 65.176 351.917 65.0346 351.917 64.2173C351.917 62.3733 345.901 64.352 345.901 59.64V43.928C345.831 42.832 348.228 38.5946 353.964 38.5946C359.496 38.5946 361.957 43.7186 361.957 47.1333V59.912C361.957 64.352 359.017 62.9853 359.017 64.352C359.017 65.0346 359.359 65.176 360.251 65.176C361.137 65.176 362.573 64.9013 365.173 64.9013C368.516 64.9013 370.228 65.176 371.112 65.176C371.445 65.176 371.663 65.176 371.94 65.1693C372.171 65.176 372.399 65.176 372.681 65.176C373.435 65.176 375.208 64.9013 377.396 64.9013C380.199 64.9013 382.317 65.176 383.748 65.176C384.639 65.176 385.047 64.9693 385.047 64.4226C385.047 62.6453 379.648 64.1493 379.648 60.6666V36.136C379.648 35.456 379.239 35.044 378.832 35.044C377.259 35.044 375.893 37.228 371.517 38.4613C371.177 38.5266 370.903 38.804 370.903 39.2133C370.903 40.644 374.668 38.8693 374.668 42.9693V59.0946C374.668 63.7186 372.945 63.4306 372.065 63.5373Z" fill="#0F2B53"/>
<path d="M327.753 38.4813C327.452 37.9866 326.759 37.9826 326.532 37.9799L326.375 38.0106C324.265 38.7626 322.44 39.1439 320.949 39.1439C320.111 39.1439 319.373 39.0133 318.908 38.7693C318.336 38.4813 317.872 38.1866 317.419 37.9053C315.856 36.9226 314.507 36.0733 310.023 36.0733C303.488 36.0733 298.561 40.8853 298.561 47.2679C298.561 50.7426 300.119 53.9293 302.657 55.7359C301.644 56.6933 299.377 58.9733 299.377 61.34C299.377 64.324 300.436 66.4453 302.221 67.1426C303.748 67.9839 306.72 68.4719 311.307 68.6359C318.704 68.8493 320.285 69.1106 320.285 71.3839C320.285 72.4346 319.76 77.6853 309.408 77.6853C306.795 77.6853 300.711 77.1866 300.711 72.5893C300.711 71.0159 300.827 70.8719 301.644 69.8386C301.899 69.5159 301.947 69.1106 301.767 68.7479C301.568 68.3346 301.129 68.0813 300.621 68.0813C300.525 68.0813 300.425 68.0866 300.257 68.1253C298.956 68.5679 296.988 69.2373 296.988 72.4746C296.988 78.5706 304.844 80.1813 309 80.1813C320.435 80.1813 324.493 74.5573 324.493 69.7426C324.493 63.1799 317.397 63.1799 313.584 63.1799C313.059 63.1799 312.536 63.1866 312.02 63.1946C311.525 63.1973 311.043 63.1973 310.571 63.1973C305.843 63.1973 304.055 62.3693 303.385 61.6733C302.936 61.2053 302.955 60.7599 302.969 60.3813C302.969 59.0213 304.425 57.0879 305.784 57.0879C306.027 57.0879 306.219 57.1399 306.52 57.2186C307.159 57.3839 308.131 57.6359 310.504 57.6359C317.343 57.6359 322.308 53.0479 322.308 46.7186C322.308 45.6133 322.144 44.3973 321.785 42.9039C321.664 42.6293 321.54 42.3786 321.437 42.1653C321.345 41.9866 321.255 41.8026 321.181 41.64C323.509 41.4 327.513 40.4599 327.645 39.6759C327.775 39.4253 328.021 38.9279 327.753 38.4813ZM310.619 55.0119C305.82 55.0119 304.117 50.2906 304.117 46.2519C304.117 42.6293 305.193 38.3093 310.348 38.3093C315.153 38.3093 316.852 43.1746 316.852 47.3479C316.852 49.6519 316.244 55.0119 310.619 55.0119Z" fill="#0F2B53"/>
<path fill-rule="evenodd" clip-rule="evenodd" d="M561.484 63.6027C561.057 63.7093 560.648 64.6533 561.549 65.1027C561.809 65.2373 561.415 65.0933 561.62 65.1067C561.84 65.0933 561.839 65.1027 562.077 65.1027C562.559 65.1027 563.784 64.828 568.364 64.828C572.193 64.828 573.831 65.1027 574.789 65.1027C575.537 65.1027 575.879 64.9667 575.879 64.352C575.879 62.168 569.799 65.4427 569.799 59.0907L569.824 43.868C569.824 42.9827 575.26 33.4093 583.587 33.776C586.052 33.884 585.648 33.9973 587.268 31.4493C587.961 30.3573 584.772 30.36 583.34 30.4733C574.161 31.208 572.115 37.4653 569.824 40.772V40.6307L569.799 36.068C569.799 35.384 569.392 34.972 568.98 34.972C567.409 34.972 566.044 37.1587 560.783 38.388C560.44 38.4613 559.893 38.728 559.893 39.14C559.893 40.576 564.811 38.8 564.811 42.9013V60.5267C564.811 62.6653 562.227 63.3213 561.484 63.6027Z" fill="#0F2B53"/>
<path fill-rule="evenodd" clip-rule="evenodd" d="M650.735 40.9466C652.101 36.8466 654.423 38.5573 654.423 36.984C654.423 36.4386 653.941 36.1666 653.124 36.1666C652.44 36.1666 651.212 36.4386 649.639 36.4386C647.728 36.4386 646.633 36.1666 645.817 36.1666C644.584 36.1666 643.764 36.2333 643.764 36.9146C643.764 38.4186 648.139 37.392 648.139 41.084C648.139 41.5653 648.139 42.176 647.315 44.6386C642.695 59.396 642.057 60.076 642.057 60.076L634.747 41.4933L634.881 41.3546C635.021 41.9733 634.405 40.9466 634.405 39.8546C634.405 37.1213 638.3 38.488 638.3 37.052C638.3 36.3053 637.889 36.1666 636.861 36.1666C635.773 36.1666 634.2 36.4386 631.807 36.4386C629.963 36.4386 628.451 36.2906 627.017 36.2906C626.061 36.2906 625.969 36.38 625.661 36.984C623.865 40.46 628.195 38.1066 628.867 39.5146L637.823 61.5813C638.435 63.016 639.189 64.5186 639.189 66.1573C639.189 71.4866 632.751 83.248 622.36 81.8466C621.997 81.7973 621.185 81.5613 620.863 81.988C621.163 82.0693 619.925 81.6746 622.06 84.8266C622.825 85.4386 624.26 85.748 626.712 85.208C633.735 83.664 638.509 76.6 638.577 76.3906C642.215 71.0026 650.735 40.9466 650.735 40.9466Z" fill="#0F2B53"/>
<path d="M422.612 22.3146C422.612 17.3946 427.188 19.3066 427.188 17.3946C427.188 16.5733 425.344 16.708 425.003 16.708C422.883 16.708 420.7 16.9853 418.512 16.9853C416.669 16.9853 414.961 16.708 413.185 16.708C412.84 16.708 411.677 16.9173 411.677 17.3946C411.677 19.5813 417.215 17.9413 417.215 21.972V44.9946C417.215 55.5186 420.633 65.5599 438.6 65.5599C458.485 65.5599 457.66 48.6866 457.66 45.3386V24.1586C457.66 17.8759 461.695 19.3759 461.695 17.4599C461.695 17.0519 461.145 16.708 460.805 16.708C459.573 16.708 458.347 16.9853 457.045 16.9853C454.381 16.9853 451.713 16.708 449.052 16.708C448.845 16.708 448.369 17.0519 448.369 17.3946C448.369 19.9906 454.725 17.1199 454.725 24.0866V46.2279C454.725 54.2866 451.784 62.7573 438.939 62.7573C429.717 62.7573 422.612 57.7746 422.612 46.8426V22.3146Z" fill="#0F2B53"/>
<path fill-rule="evenodd" clip-rule="evenodd" d="M557.552 47.5266C559.124 47.5266 559.873 47.5906 559.873 46.3653C559.873 43.6279 556.184 35.4999 547.78 35.4999C539.239 35.4999 534.391 42.8106 534.391 51.5573C534.391 56.0653 537.941 65.5599 548.195 65.5599C554.34 65.5599 560.283 60.6426 560.283 59.0706C560.283 58.8639 560.283 58.5959 560.011 58.5959C558.507 58.5959 556.253 62.1439 550.376 62.1439C546.211 62.1439 539.379 58.7999 539.379 47.5266H557.552ZM539.379 45.6826C539.379 41.9226 542.385 37.0706 546.62 37.0706C550.376 37.0706 554.2 40.4866 554.2 44.3159C554.2 45.3386 553.795 45.6826 552.839 45.6826H539.379Z" fill="#0F2B53"/>
<path d="M587.772 52.1719C590.507 53.4693 593.991 54.5613 593.991 58.1839C593.991 61.7346 591.257 63.7853 587.911 63.7853C580.531 63.7853 581.287 54.7679 579.781 54.7679C578.755 54.7679 578.964 56.9519 578.964 58.1146C578.964 63.5106 578.964 63.5786 580.461 63.5786C582.104 63.5786 583.333 65.5599 588.119 65.5599C593.171 65.5599 597.34 61.3266 597.34 56.2026C597.34 51.8279 595.563 49.7133 591.671 48.0719C584.493 45.2013 582.719 43.7666 582.719 41.5106C582.719 38.7106 584.837 37.1386 587.505 37.1386C593.72 37.1386 594.335 43.0853 595.017 43.0853C596.037 43.0853 595.769 42.2653 595.769 40.4173C595.769 39.9399 595.84 37.6199 595.425 37.0706C594.605 36.0426 589.892 35.4999 588.729 35.4999C583.741 35.4999 579.504 38.2306 579.504 43.6973C579.504 48.5479 584.084 50.3239 587.772 52.1719Z" fill="#0F2B53"/>
<path fill-rule="evenodd" clip-rule="evenodd" d="M614.879 57.6359C614.879 64.6706 619.388 65.5599 622.529 65.5599C627.313 65.5599 631.001 63.2386 631.001 62.2146C631.001 61.6653 630.728 61.5973 630.455 61.5973C629.293 61.5973 628.268 63.1706 624.648 63.1706C621.913 63.1706 620.001 61.8719 619.868 59.0706V39.1919H628.748L629.677 36.6933C629.885 36.3519 629.087 36.3866 627.381 36.3866H619.868C619.868 31.4693 619.933 30.0346 618.979 30.0346C618.433 30.0346 617.863 29.6453 617.599 31.7586C617.028 36.3053 613.333 38.0786 613.292 38.6119C613.653 38.2479 612.032 39.3373 614.879 39.1919V57.6359Z" fill="#0F2B53"/>
<path d="M516.964 42.6026C516.159 40.5786 515.821 39.5012 515.821 39.2972C515.821 37.2799 519.66 38.1519 519.66 36.8052C519.66 36.0639 519.053 36.0639 518.112 36.0639C517.3 36.0639 516.427 36.3319 513.936 36.3319C509.487 36.3319 509.487 36.0639 508.208 36.0639C506.859 36.0639 506.793 36.4012 506.793 36.8706C506.793 38.0826 509.216 37.0732 510.499 40.1052L520.673 63.3519C520.872 63.8266 521.148 64.9692 522.016 64.9692C523.032 64.9692 523.032 64.1599 524.309 61.3986L534.617 39.5666C535.564 37.5439 537.989 37.9492 537.989 37.0732C537.989 36.1292 536.841 36.0639 536.173 36.0639C535.027 36.0639 533.815 36.3319 532.665 36.3319C531.187 36.3319 529.904 36.0639 528.489 36.0639C527.616 36.0639 526.871 36.1292 526.871 36.9359C526.871 38.6226 531.047 36.7372 531.047 40.5106C531.047 43.5426 529.364 46.3719 528.088 49.0679L523.568 58.7719L516.964 42.6026Z" fill="#0F2B53"/>
<path d="M496.596 65.096C496.827 65.1133 496.915 65.0827 497.221 65.0827C497.973 65.0827 499.748 64.8107 501.936 64.8107C504.735 64.8107 506.852 65.0827 508.288 65.0827C509.173 65.0827 509.587 64.876 509.587 64.3307C509.587 62.5547 504.187 64.06 504.187 60.5734V36.0427C504.187 35.36 503.776 34.9547 503.368 34.9547C501.795 34.9547 500.428 37.1387 496.057 38.368C495.713 38.436 495.443 38.7107 495.443 39.12C495.443 40.556 499.201 38.776 499.201 42.876V59.0054C499.201 63.6614 497.437 63.404 496.675 63.448C496.431 63.448 491.487 63.748 491.487 59.548V48.2747C491.487 43.0854 489.503 35.5 480.348 35.5C473.721 35.5 470.303 41.376 470.441 40.556V36.0427C470.441 35.36 470.028 34.9547 469.62 34.9547C468.048 34.9547 466.681 37.1387 461.011 38.368C460.668 38.436 460.401 38.7107 460.401 39.12C460.401 40.556 465.453 38.776 465.453 42.876V59.8214C465.453 64.2614 461.42 62.8987 461.42 64.2613C461.42 64.9453 461.761 65.0827 462.645 65.0827C463.471 65.0827 464.837 64.8107 468.456 64.8107C472.417 64.8107 473.787 65.0827 474.947 65.0827C475.973 65.0827 476.453 64.9453 476.453 64.128C476.453 62.2813 470.441 64.2613 470.441 59.548V43.8347C470.369 42.7427 472.761 38.5054 478.5 38.5054C484.036 38.5054 486.495 43.628 486.495 47.048V59.8214C486.495 64.2614 483.555 62.8987 483.555 64.2613C483.555 64.9453 483.901 65.0827 484.787 65.0827C485.673 65.0827 487.112 64.8107 489.707 64.8107C493.053 64.8107 494.759 65.0827 495.648 65.0827C495.94 65.0827 496.352 65.096 496.596 65.096Z" fill="#0F2B53"/>
<path d="M502.133 25.7866C501.315 25.7866 499.264 28.6573 499.264 29.4066C499.264 30.1573 501.315 32.96 502.133 32.96C503.02 32.96 505.005 30.2266 505.005 29.4066C505.005 28.5893 503.02 25.7866 502.133 25.7866Z" fill="#0F2B53"/>
<path d="M602.568 58.7266C602.568 64.9413 599.561 62.3453 599.561 64.052C599.625 64.736 600.037 64.8053 600.583 64.8053C601.336 64.8053 603.115 64.5333 605.301 64.5333C608.1 64.5333 610.223 64.8053 611.655 64.8053C612.54 64.8053 612.956 64.5986 612.956 64.052C612.956 62.2773 607.555 63.7813 607.555 60.296V35.768C607.555 35.0853 607.143 34.6773 606.735 34.6773C605.16 34.6773 603.793 36.86 599.423 38.0933C599.083 38.1626 598.809 38.4333 598.809 38.8426C598.809 40.2773 602.568 38.5026 602.568 42.6026V58.7266Z" fill="#0F2B53"/>
<path d="M605.288 25.7866C604.471 25.7866 602.421 28.6573 602.421 29.4066C602.421 30.1573 604.471 32.96 605.288 32.96C606.177 32.96 608.159 30.2266 608.159 29.4066C608.159 28.5893 606.177 25.7866 605.288 25.7866Z" fill="#0F2B53"/>
<path d="M651.797 66.9879C654.34 66.9879 656.513 65.0146 656.513 62.3079C656.513 59.6266 654.34 57.6492 651.797 57.6492C649.228 57.6492 647.049 59.6266 647.049 62.3079C647.049 65.0146 649.228 66.9879 651.797 66.9879ZM647.995 62.3079C647.995 60.0973 649.659 58.4306 651.797 58.4306C653.907 58.4306 655.575 60.0973 655.575 62.3079C655.575 64.5573 653.907 66.2132 651.797 66.2132C649.659 66.2132 647.995 64.5573 647.995 62.3079ZM650.811 62.6786H651.747L653.168 65.0146H654.081L652.551 62.6452C653.34 62.5412 653.941 62.1199 653.941 61.1612C653.941 60.0972 653.316 59.6266 652.043 59.6266H649.996V65.0146H650.811V62.6786ZM650.811 61.9852V60.3199H651.919C652.488 60.3199 653.093 60.4439 653.093 61.1092C653.093 61.9372 652.477 61.9852 651.781 61.9852H650.811Z" fill="#0F2B53"/>
<path d="M103.921 -0.00399265H86.667L85.6264 0.0053498C82.443 -0.0493169 81.2858 1.13868 80.3317 2.60535L66.7676 22.7L53.7952 3.01069L53.3624 2.36534C53.3624 2.36534 53.0088 1.78934 52.3873 1.76668H52.3837C51.7593 1.78934 51.4056 2.36534 51.4056 2.36534L50.9728 3.01069L38.4186 22.7L24.4369 2.60535C23.4821 1.13868 22.3285 -0.0493169 19.1416 0.0053498L18.105 -0.00399265H0.846737L0.839966 16.4027H11.0035C13.1467 16.3813 14.1358 16.4813 15.6045 18.2453L16.2129 19.1387L36.7222 51.264C36.7222 51.264 37.3889 52.3027 38.5217 52.3093C39.7441 52.312 40.4212 51.2613 40.4212 51.2613L52.3837 33.3373H52.3873L64.8077 51.2373C64.8077 51.2373 65.5072 52.3 66.5618 52.3267C67.6946 52.3533 68.3197 51.2613 68.3197 51.2613L88.5588 19.1387L89.1629 18.2453C90.214 16.6013 91.5394 16.4293 93.6749 16.4493L103.846 16.4427L103.921 -0.00399265Z" fill="#EDAC09"/>
<path d="M77.8998 45.9573L66.8369 63.5L52.5968 42.832L41.626 58.972L64.7457 95.2453C65.5452 96.604 66.178 96.8133 66.5004 96.824C67.2009 96.8546 67.6061 96.48 68.3613 95.2106L86.5192 62.088C88.1332 59.212 90.8321 59.2493 90.8321 59.2493H103.921V42.8626H83.4832C79.7613 42.8626 77.8998 45.9573 77.8998 45.9573Z" fill="#EDAC09"/>
</g>
<defs>
<clipPath id="clip0_237_2">
<rect width="656" height="97" fill="white" transform="translate(0.839966)"/>
</clipPath>
</defs>
</svg>
